<?xml version="1.0" standalone="no"?>
<!DOCTYPE svg PUBLIC "-//W3C//DTD SVG 20010904//EN"
 "http://www.w3.org/TR/2001/REC-SVG-20010904/DTD/svg10.dtd">
<svg version="1.0" xmlns="http://www.w3.org/2000/svg"
 width="1029.000000pt" height="1029.000000pt" viewBox="0 0 1029.000000 1029.000000"
 preserveAspectRatio="xMidYMid meet">
<metadata>
Created by potrace 1.11, written by Peter Selinger 2001-2013
</metadata>
<g transform="translate(0.000000,1029.000000) scale(0.100000,-0.100000)"
fill="#000000" stroke="none">
<path d="M4715 9429 c-55 -34 -115 -70 -132 -81 -18 -11 -30 -24 -27 -29 3 -5
-5 -9 -18 -9 -18 0 -20 -2 -8 -10 13 -8 12 -10 -4 -10 -12 0 -16 -5 -12 -15 3
-9 -8 -37 -24 -63 l-30 -47 0 45 c0 47 -32 111 -44 91 -4 -6 -2 -11 4 -11 20
0 -1 -20 -37 -35 -20 -8 -42 -23 -49 -33 -7 -9 -14 -13 -14 -9 0 4 -9 3 -21
-4 -14 -7 -19 -17 -16 -30 3 -10 1 -19 -4 -19 -5 0 -9 12 -9 28 l0 27 -16 -30
c-13 -26 -39 -40 -197 -105 l-182 -75 3 -64 c2 -51 -1 -66 -15 -76 -15 -12
-20 -11 -29 6 -10 20 -10 19 -30 -2 l-19 -22 25 7 c14 3 19 3 13 0 -7 -3 -13
-13 -13 -22 0 -15 -2 -15 -10 -2 -7 12 -16 7 -45 -25 -19 -22 -35 -43 -35 -47
0 -9 -149 -108 -163 -108 -6 0 -70 21 -141 46 -94 33 -154 62 -216 103 -47 32
-90 61 -97 64 -6 4 -19 0 -27 -9 -11 -11 -16 -12 -16 -3 0 9 -4 7 -12 -3 -17
-22 -79 -58 -99 -58 -9 0 -19 -7 -23 -15 -12 -33 -34 -15 -41 35 -4 28 -10 50
-13 50 -4 0 -52 -38 -107 -85 l-100 -84 -82 -1 c-67 0 -83 3 -83 15 0 8 6 15
13 15 8 0 25 9 38 20 12 12 38 30 56 41 18 11 33 28 33 37 0 17 -78 353 -82
358 -2 1 -52 -8 -113 -20 -101 -20 -119 -27 -230 -93 -92 -56 -150 -100 -250
-193 -71 -67 -139 -128 -151 -136 -11 -8 -47 -16 -80 -18 -50 -2 -81 -14 -194
-71 -74 -38 -148 -78 -165 -90 -16 -12 -88 -41 -158 -64 -111 -37 -180 -74
-178 -95 3 -26 -1 -36 -11 -31 -7 4 -2 -3 12 -14 14 -11 41 -26 60 -32 56 -19
67 -39 75 -141 l7 -91 76 6 c74 6 76 6 126 56 29 28 55 51 59 51 3 0 16 -18
27 -39 27 -54 36 -57 65 -24 30 35 30 35 3 78 -15 23 -29 33 -39 30 -13 -4
-19 7 -28 53 -11 57 -7 97 9 87 4 -3 11 2 14 11 3 8 11 12 17 8 8 -4 9 -3 5 5
-6 9 -11 9 -24 -1 -9 -8 -7 1 7 20 12 18 26 30 30 28 4 -3 8 0 8 7 0 15 99
156 122 175 9 7 15 16 14 20 -2 4 5 7 15 7 13 0 21 -17 35 -74 9 -41 19 -90
21 -110 2 -20 6 -43 9 -51 11 -30 37 -196 37 -234 0 -41 -20 -65 -52 -66 -10
0 -18 -4 -18 -10 0 -5 -7 -10 -15 -10 -9 0 -27 -7 -40 -16 -13 -9 -29 -13 -35
-9 -18 11 14 -57 95 -201 41 -74 75 -139 75 -144 0 -6 -24 -10 -52 -10 -70 0
-98 -8 -91 -26 3 -8 0 -14 -7 -14 -6 0 -8 -4 -5 -10 3 -5 2 -10 -4 -10 -5 0
-8 -9 -6 -19 3 -15 0 -18 -13 -14 -15 6 -16 5 -2 -12 14 -17 13 -18 -4 -12
-15 6 -16 5 -8 -6 6 -7 69 -42 141 -77 72 -36 131 -68 131 -72 0 -4 -46 -39
-102 -76 -157 -106 -293 -203 -296 -212 -2 -5 6 -27 17 -50 19 -40 19 -43 3
-75 -9 -19 -22 -35 -28 -35 -7 0 -15 -8 -19 -17 -7 -19 37 -63 63 -63 6 0 12
-4 12 -8 0 -5 12 -14 27 -21 15 -7 22 -16 17 -20 -20 -19 -351 -121 -389 -121
-20 0 -54 29 -283 233 l-121 108 -21 -73 c-12 -40 -25 -81 -30 -90 -6 -11 -5
-18 3 -21 21 -7 47 5 48 22 0 10 2 11 6 3 2 -6 8 -10 13 -7 9 5 17 -49 25
-167 l6 -83 -38 44 c-95 111 -95 111 -158 122 -32 6 -90 9 -127 7 -52 -3 -68
0 -68 10 0 14 65 140 81 156 6 6 9 4 9 -5 1 -8 7 -3 15 11 8 14 14 19 15 12 0
-9 6 -8 24 3 14 10 27 12 30 6 7 -10 56 9 56 22 0 4 7 7 15 7 8 0 15 5 15 10
0 6 9 10 20 10 10 0 24 8 29 18 8 12 10 13 11 3 0 -8 3 -12 6 -8 6 6 -51 155
-65 170 -5 4 -25 -11 -45 -33 l-37 -41 -142 3 c-84 1 -157 -2 -179 -9 -21 -6
-38 -7 -38 -3 0 4 -46 17 -102 28 -57 11 -110 22 -118 26 -13 5 -15 -94 -15
-861 0 -478 -3 -941 -8 -1030 -5 -106 -4 -164 3 -168 6 -4 10 13 10 45 0 55
30 383 36 389 2 2 44 -31 94 -73 50 -42 94 -76 98 -76 4 0 74 67 155 148 124
125 147 153 147 178 0 32 31 74 55 74 8 0 15 5 15 11 0 5 4 7 10 4 5 -3 10 -1
10 6 0 7 3 9 6 6 9 -8 46 12 40 22 -3 4 7 7 22 7 22 -1 27 3 26 23 -1 24 -1
24 23 -5 13 -16 35 -42 50 -59 14 -16 37 -48 51 -70 48 -75 50 -76 81 -57 14
9 30 21 34 27 5 5 5 -28 2 -75 -4 -47 -12 -88 -18 -92 -7 -4 -64 -8 -127 -9
-63 0 -126 -5 -140 -9 -14 -4 -21 -8 -16 -9 5 -1 3 -8 -4 -16 -10 -12 -10 -15
1 -15 10 0 10 -3 2 -11 -9 -9 -22 -6 -53 10 -22 11 -43 21 -45 21 -3 0 -5 -57
-5 -126 0 -81 -4 -123 -10 -119 -5 3 -10 1 -10 -4 0 -6 -9 -11 -20 -11 -11 0
-20 -2 -20 -4 0 -14 25 -72 34 -78 7 -5 6 -8 -3 -8 -8 0 -2 -9 13 -21 14 -11
26 -24 26 -29 0 -5 -27 -54 -59 -111 -42 -72 -59 -110 -56 -128 2 -14 7 -68
10 -119 5 -77 3 -93 -8 -90 -14 3 -137 140 -137 153 0 10 30 38 30 28 0 -4 4
-3 8 3 4 6 16 16 27 22 19 10 18 11 -8 17 -26 7 -94 1 -104 -9 -2 -2 10 -37
27 -77 64 -151 82 -200 76 -215 -3 -9 -1 -12 4 -9 6 3 10 1 10 -4 0 -6 -9 -11
-19 -11 -11 0 -23 -5 -26 -10 -4 -7 3 -8 22 -4 15 4 31 7 35 8 4 0 14 -8 22
-19 13 -16 17 -17 25 -6 10 15 31 7 31 -12 0 -7 4 -18 9 -26 7 -10 20 -2 59
37 27 28 47 54 44 57 -14 14 31 1 134 -37 l113 -42 11 -66 c6 -36 18 -90 27
-120 l16 -55 9 34 c7 26 12 31 19 20 7 -11 9 -11 9 4 0 19 34 57 51 57 6 0 8
7 5 16 -5 13 -2 15 14 11 11 -3 18 -1 15 3 -7 12 -143 100 -154 100 -13 0 45
64 96 106 l42 34 25 -25 c27 -27 41 -31 51 -15 9 15 47 12 128 -9 73 -20 215
-41 274 -41 23 0 33 5 33 15 0 8 4 15 10 15 5 0 9 3 8 8 -3 11 43 82 52 82 5
0 27 -33 49 -74 37 -67 44 -74 78 -80 77 -12 87 -9 106 34 9 22 19 40 22 40 3
0 37 -16 75 -35 39 -19 70 -32 70 -28 0 5 5 0 11 -10 6 -9 15 -15 20 -12 5 4
6 11 3 17 -4 7 -2 8 4 4 19 -12 14 2 -35 96 l-48 90 27 22 c14 11 58 46 97 75
41 32 66 58 60 62 -7 4 -7 9 -1 13 5 3 8 17 6 31 -1 15 3 28 11 31 8 3 11 12
9 19 -3 7 2 15 13 17 11 2 -8 17 -55 41 -40 21 -80 36 -88 33 -8 -3 -14 -1
-14 3 0 5 -17 7 -38 4 -27 -4 -42 -1 -51 11 -11 14 -7 22 32 59 l45 43 -14 64
c-19 87 -26 140 -18 140 3 0 19 -9 35 -21 16 -11 34 -17 40 -13 8 5 9 3 4 -6
-6 -10 -4 -12 9 -7 9 4 15 3 12 -2 -4 -5 14 -21 38 -35 50 -29 56 -31 56 -15
0 5 -4 8 -9 4 -6 -3 -9 3 -8 13 1 14 7 18 22 15 15 -4 17 -2 6 5 -11 8 -7 13
18 26 23 12 31 23 31 44 0 19 -3 23 -9 13 -6 -9 -11 -10 -15 -2 -4 6 0 14 8
17 9 3 16 14 16 23 0 9 9 24 20 34 15 13 18 22 11 39 -9 23 -11 32 -11 46 0 4
-4 2 -8 -5 -5 -8 -29 21 -68 80 -89 136 -110 172 -93 162 11 -6 12 -5 2 6 -20
20 -16 25 21 24 19 -1 35 1 34 4 -2 18 3 24 11 12 6 -9 10 -4 13 17 3 23 1 29
-11 24 -9 -4 -12 -1 -7 7 5 7 18 10 35 6 15 -3 51 3 86 15 33 11 94 29 135 40
41 11 85 22 96 25 19 6 23 0 39 -59 18 -65 19 -66 38 -49 10 10 29 17 40 15
12 -1 29 2 37 8 13 9 13 11 0 20 -22 14 -4 12 36 -5 41 -17 56 -12 53 18 0 12
0 24 1 27 2 3 8 43 14 89 6 47 16 86 23 88 7 3 10 -4 7 -19 -3 -19 -2 -18 7 4
6 15 19 30 30 33 29 10 89 75 82 91 -3 8 -3 14 0 14 10 0 84 -46 161 -99 85
-59 84 -59 60 -148 -5 -18 -2 -23 12 -23 16 0 17 -2 4 -10 -8 -5 -11 -10 -6
-10 5 0 2 -8 -6 -17 -9 -10 -32 -61 -52 -113 -21 -52 -41 -106 -47 -118 -5
-13 -6 -22 -1 -20 11 4 375 249 386 259 5 5 -2 13 -17 18 -65 25 -237 112
-237 121 0 5 31 24 70 42 41 19 70 39 70 48 0 12 -2 13 -9 1 -6 -10 -10 -10
-13 -1 -2 8 -16 4 -42 -14 -21 -14 -42 -23 -47 -21 -4 3 -15 -5 -23 -17 -9
-12 -17 -20 -19 -17 -8 10 -107 390 -107 409 0 16 5 20 18 16 9 -2 49 -7 87
-11 39 -3 84 -8 101 -11 30 -6 31 -4 39 38 4 23 7 46 7 50 -1 4 6 4 15 1 12
-5 14 -3 8 8 -9 13 39 -19 150 -102 27 -21 53 -35 58 -32 4 3 13 17 20 31 11
25 12 24 15 -26 2 -36 7 -52 15 -49 6 2 54 51 105 109 l92 106 -34 96 c-34 93
-34 95 -17 118 10 13 30 41 45 62 l26 39 -125 54 c-69 30 -131 51 -137 47 -6
-4 -8 -3 -5 3 7 11 -90 49 -100 39 -4 -3 2 -6 13 -7 14 0 12 -3 -8 -11 -16 -5
-28 -17 -28 -26 0 -13 3 -12 15 4 14 17 14 17 3 -11 -12 -31 -34 -63 -23 -34
4 10 2 20 -4 24 -13 8 -15 -46 -3 -61 12 -13 56 -134 51 -139 -5 -4 -8 -5
-134 -30 -44 -9 -108 -22 -142 -29 l-62 -14 -115 75 c-86 56 -116 81 -116 96
0 41 -23 197 -29 197 -3 0 -43 -22 -88 -49 l-83 -49 -44 34 c-27 21 -43 40
-42 51 3 16 18 18 137 21 73 2 138 7 144 11 5 5 106 14 223 21 159 10 212 16
212 26 0 19 35 27 89 19 34 -5 90 2 207 26 l159 32 98 80 c53 43 97 81 97 83
0 1 -22 29 -48 61 -71 86 -137 175 -152 203 -7 14 -9 22 -5 18 8 -8 19 0 78
55 22 20 46 37 54 37 7 0 13 4 13 10 0 10 -23 7 -129 -16 -35 -8 -66 -12 -69
-10 -2 3 38 63 89 135 73 101 105 136 142 157 26 16 47 31 47 35 0 4 20 11 45
15 25 3 63 19 86 36 39 28 41 28 54 11 11 -15 11 -21 -1 -34 -14 -15 -9 -18
48 -27 35 -6 91 -14 126 -18 57 -6 63 -9 68 -33 9 -38 63 -260 74 -302 11 -41
65 -106 75 -90 3 6 3 16 -1 23 -4 7 -3 8 4 4 6 -4 34 10 63 31 28 21 55 37 59
36 5 -2 12 6 15 17 4 11 12 20 19 20 10 0 12 -13 8 -50 -4 -49 -4 -49 22 -44
25 4 29 -1 62 -71 34 -69 58 -93 66 -62 9 35 152 257 165 257 13 0 111 -15
291 -46 23 -3 32 -2 27 5 -3 6 1 11 10 11 11 0 15 5 11 15 -7 19 3 47 15 39 5
-3 12 2 15 10 3 9 10 14 14 11 7 -5 35 73 46 133 6 32 7 32 53 27 60 -8 98
-12 203 -25 47 -6 110 -10 140 -10 107 -1 392 -24 368 -31 l-25 -7 25 -2 c20
-2 18 -4 -10 -9 -29 -5 -34 -10 -32 -28 2 -13 -1 -23 -7 -23 -5 0 -20 -9 -33
-20 -58 -49 -128 -100 -138 -100 -5 0 -10 -10 -10 -22 0 -21 -1 -21 -13 -4
-12 17 -14 17 -20 3 -3 -9 -2 -29 2 -44 5 -15 19 -71 32 -124 l22 -97 -29 -48
c-16 -27 -34 -60 -40 -75 -6 -14 -46 -54 -88 -89 -42 -36 -76 -67 -76 -71 0
-4 -41 -17 -91 -30 l-92 -24 -71 -82 c-39 -45 -79 -84 -89 -88 -9 -4 -15 -10
-13 -14 3 -4 -11 -23 -30 -42 l-35 -34 -132 -1 c-77 -1 -117 1 -95 5 20 4 43
13 51 20 20 16 29 74 11 67 -8 -3 -11 0 -7 10 6 16 12 17 33 4 9 -5 17 -5 21
1 3 5 14 -2 25 -17 31 -44 66 -74 86 -74 12 0 16 4 12 12 -4 7 -3 8 5 4 7 -4
15 2 20 16 4 13 11 22 15 21 3 -2 6 -1 6 2 0 3 0 9 0 13 0 5 -11 14 -26 20
-14 7 -50 28 -80 47 l-56 36 36 34 c20 18 36 36 36 39 0 11 -75 126 -81 126
-4 0 -10 -17 -13 -37 -13 -72 -38 -168 -47 -177 -4 -5 -3 -18 3 -30 11 -20 10
-20 -7 -6 -17 14 -18 13 -12 -3 4 -10 3 -16 -3 -12 -5 3 -14 -4 -20 -15 -6
-11 -8 -20 -5 -20 3 0 -6 -15 -20 -34 -14 -19 -28 -51 -31 -73 -4 -28 -3 -34
5 -23 9 13 27 7 123 -42 l113 -57 -142 0 c-78 -1 -144 3 -148 8 -3 5 2 17 11
25 9 9 13 23 10 31 -3 10 0 12 11 8 13 -5 13 -3 5 14 -6 11 -9 29 -6 40 5 20
-153 353 -181 383 -13 12 -20 11 -52 -8 -21 -13 -69 -39 -108 -59 -64 -33 -74
-35 -135 -30 -39 3 -55 2 -40 -3 25 -8 25 -8 2 -9 -13 -1 -21 -5 -18 -10 8
-13 -89 -131 -98 -120 -2 2 -29 39 -61 82 -31 42 -61 77 -65 77 -4 0 -10 -44
-14 -97 -4 -54 -10 -100 -15 -103 -15 -9 -128 -238 -115 -233 7 2 15 11 18 19
3 9 10 12 16 9 5 -3 10 -1 10 6 0 7 3 9 6 6 4 -4 14 2 23 12 9 10 26 23 39 30
18 9 22 9 22 -2 0 -8 3 -28 6 -44 l6 -30 -64 -7 c-113 -13 -111 -11 -105 -69
4 -27 8 -52 11 -54 2 -3 21 7 42 21 l37 25 48 -24 c36 -19 49 -32 54 -54 7
-32 22 -36 42 -11 7 8 13 11 13 6 0 -6 7 -1 16 10 14 18 15 18 8 -6 -4 -14
-15 -42 -26 -63 -11 -22 -16 -42 -13 -45 9 -9 101 42 98 54 -1 5 9 15 23 22
13 7 24 17 24 22 0 6 7 10 16 10 8 0 12 5 9 10 -3 6 -2 10 3 10 10 0 40 -66
62 -132 10 -35 30 -52 30 -28 0 6 5 10 11 10 6 0 36 20 67 44 68 52 256 124
278 105 8 -7 19 -7 31 -1 10 5 35 12 56 15 33 5 53 -2 142 -49 103 -54 133
-65 119 -42 -5 8 -2 9 10 5 14 -6 15 -4 5 14 -8 15 -8 19 0 15 6 -4 11 -1 11
6 0 22 19 -13 35 -67 16 -50 28 -61 128 -121 10 -7 24 -18 30 -25 10 -11 9
-11 -5 0 -24 18 -64 11 -60 -12 2 -9 -9 -29 -24 -43 -21 -22 -28 -24 -36 -13
-6 10 -8 5 -4 -16 3 -16 1 -37 -5 -45 -8 -12 -9 -11 -5 5 3 11 1 27 -5 35 -8
12 -9 10 -4 -7 3 -12 2 -24 -3 -27 -5 -3 -8 -18 -6 -33 l4 -28 -15 30 c-12 23
-15 25 -11 7 2 -14 -2 -26 -12 -32 -13 -7 -13 -9 -3 -10 11 0 11 -4 -2 -18
-10 -10 -17 -22 -17 -26 0 -15 152 8 344 50 l119 27 76 -82 c61 -67 78 -80 89
-70 9 10 12 10 12 1 0 -7 9 -3 20 8 11 11 31 22 45 26 14 3 25 11 25 17 0 8 3
8 10 1 7 -7 10 -54 8 -120 l-3 -109 -49 3 c-63 4 -97 -4 -90 -22 3 -8 -3 -20
-14 -27 -10 -8 -24 -23 -31 -34 -10 -16 -11 -17 -7 -2 4 12 2 16 -6 11 -6 -4
-16 0 -22 8 -40 53 -91 108 -102 108 -7 0 -48 11 -90 25 -42 14 -86 24 -98 24
-15 -1 -13 -3 9 -9 25 -6 26 -8 7 -9 -14 -1 -27 -11 -34 -26 -6 -14 -15 -25
-20 -25 -4 0 -8 -7 -8 -15 0 -7 -8 -18 -17 -24 -15 -8 -16 -13 -6 -30 7 -11
10 -28 6 -37 -5 -13 -3 -15 7 -9 9 5 11 4 6 -3 -11 -18 -13 -16 -37 33 -12 25
-26 45 -31 45 -4 0 -8 7 -8 15 0 8 -4 15 -10 15 -5 0 -10 6 -10 14 0 8 -4 16
-8 18 -4 2 -19 21 -32 42 l-24 40 -8 -31 c-8 -32 -48 -54 -48 -27 0 12 -4 12
-20 2 -11 -7 -20 -20 -20 -28 0 -8 -14 -30 -30 -49 -27 -30 -37 -34 -83 -36
-39 -1 -51 -5 -49 -15 2 -8 -2 -107 -8 -219 -11 -191 -14 -209 -37 -249 -14
-24 -23 -45 -21 -47 3 -3 11 6 18 20 7 14 18 25 24 25 6 0 47 -46 91 -102 59
-77 99 -144 157 -265 43 -88 78 -168 78 -176 0 -11 -36 -21 -145 -42 -80 -15
-145 -31 -145 -37 0 -5 -4 -7 -9 -4 -5 3 -12 -1 -15 -10 -9 -23 -7 -36 4 -29
6 3 10 2 10 -3 0 -15 -44 -23 -52 -9 -24 42 -35 48 -88 49 -33 1 -55 -3 -58
-10 -2 -7 -12 -12 -23 -12 -11 0 -24 -10 -29 -22 -5 -13 -9 -17 -9 -9 -1 11
-5 11 -23 -2 -22 -14 -23 -13 -33 32 l-10 46 -185 92 c-102 51 -186 93 -187
93 -2 0 -3 -8 -4 -17 0 -17 -1 -17 -7 0 -7 17 -42 31 -270 104 -98 32 -99 31
-37 -32 206 -210 256 -275 211 -275 -8 0 -70 -16 -138 -36 -142 -42 -109 -44
-462 25 -115 22 -213 38 -218 35 -4 -3 -8 0 -8 7 0 8 -5 8 -17 -2 -15 -11 -16
-11 -5 1 7 8 12 43 12 87 0 71 -1 74 -27 85 -16 7 -44 22 -63 33 -19 12 -57
27 -85 34 -104 26 -155 43 -150 51 3 5 -1 11 -7 14 -7 3 -3 3 10 0 12 -3 21
-2 20 3 -2 5 6 19 18 31 44 47 50 70 29 108 l-18 34 -59 -87 c-57 -86 -59 -88
-105 -95 -27 -4 -63 -10 -82 -13 -31 -6 -33 -5 -17 10 9 9 16 21 16 26 0 6 5
7 10 4 6 -3 10 0 10 7 0 18 36 39 54 32 19 -7 99 98 82 108 -6 4 -46 8 -88 8
l-76 0 -37 -110 -37 -110 30 -52 c39 -69 85 -154 107 -197 l17 -34 57 57 c49
49 62 56 98 58 23 1 48 5 55 10 8 5 -10 6 -44 2 -38 -4 -58 -3 -58 4 0 6 -3
18 -6 27 -4 9 -2 15 3 13 6 -2 19 8 30 21 l20 25 44 -32 44 -32 31 36 c30 37
59 50 70 33 3 -5 0 -9 -6 -9 -13 0 -46 -30 -33 -30 4 0 0 -5 -10 -11 -14 -8
-15 -14 -7 -24 8 -10 19 -11 43 -4 18 5 33 9 35 9 2 0 -6 -12 -17 -26 -25 -32
-22 -39 36 -65 35 -16 43 -23 33 -32 -10 -9 -14 -9 -17 1 -3 6 -14 12 -26 12
-15 0 -18 -3 -10 -8 16 -10 -58 -45 -79 -37 -7 3 -23 -4 -35 -15 -12 -11 -26
-20 -30 -20 -9 0 -33 -48 -33 -67 0 -7 -3 -13 -8 -13 -4 0 -16 -27 -26 -60
-13 -39 -25 -60 -35 -61 -11 0 -12 -2 -3 -6 10 -4 10 -8 0 -21 -7 -8 -12 -17
-10 -19 1 -1 1 -3 0 -2 -2 0 -15 -4 -30 -10 -23 -8 -28 -8 -28 4 0 8 11 17 25
21 21 5 24 11 20 35 -5 27 -30 96 -60 164 -7 17 -16 39 -19 49 -6 17 -9 18
-21 5 -17 -17 -137 -214 -171 -281 -28 -56 -47 -67 -73 -44 -22 20 -49 22 -32
2 9 -10 3 -19 -27 -40 -21 -14 -41 -26 -45 -26 -4 0 -7 15 -7 33 0 17 -3 48
-6 68 -8 46 -26 43 -83 -15 l-41 -42 60 -29 c67 -32 67 -31 24 -117 l-24 -46
34 -29 c34 -31 59 -62 38 -49 -22 13 -13 -29 16 -75 15 -24 32 -50 36 -57 5
-8 -2 -16 -23 -23 -17 -6 -31 -15 -31 -21 0 -5 -4 -7 -9 -4 -7 5 -198 -58
-208 -68 -2 -1 31 -35 71 -74 l74 -73 47 88 c26 49 51 90 56 93 4 3 12 17 18
30 7 19 10 20 10 7 1 -10 5 -16 10 -13 7 5 84 -162 103 -223 2 -9 42 40 94
117 49 72 92 130 95 129 4 -1 25 -19 49 -40 l42 -38 -23 -20 c-12 -10 -19 -22
-16 -26 4 -3 15 1 25 10 14 13 39 17 108 17 58 0 95 4 103 13 11 10 13 9 9 -3
-2 -8 -15 -17 -29 -21 -13 -4 -18 -7 -12 -8 7 -1 -9 -24 -35 -52 -26 -28 -46
-56 -44 -61 2 -6 -5 -61 -14 -122 -9 -61 -18 -127 -20 -147 -2 -20 -8 -48 -13
-62 -12 -32 -3 -41 47 -47 10 -1 12 -4 5 -6 -7 -3 -9 -12 -6 -21 5 -12 3 -14
-6 -8 -8 4 4 -15 25 -44 21 -28 42 -51 47 -51 5 0 32 25 61 55 28 30 55 55 61
55 14 0 115 -112 109 -121 -3 -5 -16 -9 -30 -9 -13 0 -24 -4 -24 -10 0 -5 -11
-10 -24 -10 -17 0 -27 -9 -36 -29 -6 -16 -24 -34 -40 -41 -43 -18 -54 -49 -46
-127 4 -39 3 -64 -2 -58 -37 42 -72 96 -72 109 0 9 12 39 26 67 14 28 24 52
22 54 -16 14 -71 35 -78 30 -6 -3 -10 -1 -10 4 0 6 -4 11 -10 11 -5 0 -7 -7
-4 -15 11 -28 -6 -15 -31 24 -25 37 -26 41 -14 97 l11 59 -47 50 c-25 28 -67
74 -92 102 -25 29 -67 75 -94 103 -27 28 -49 55 -49 60 0 6 -12 10 -26 10 -21
0 -25 -4 -20 -17 4 -10 4 -14 0 -11 -4 4 -19 -10 -35 -31 -15 -22 -33 -42 -39
-46 -8 -5 0 -20 24 -44 l37 -38 -122 2 c-68 1 -130 0 -140 -2 -18 -5 -70 -111
-73 -148 0 -13 -4 -21 -7 -19 -6 3 -49 -90 -49 -106 0 -8 204 -13 241 -5 14 3
26 11 25 18 -2 19 127 253 132 239 2 -7 9 -9 14 -6 7 4 8 2 4 -4 -9 -16 41
-112 59 -112 25 0 6 -24 -43 -53 -28 -18 -48 -25 -50 -18 -2 6 -8 11 -13 11
-4 0 -6 -7 -3 -15 4 -9 -2 -18 -17 -24 -13 -5 -32 -19 -42 -30 -16 -20 -16
-24 -2 -51 8 -16 19 -32 25 -35 5 -3 15 -15 21 -27 8 -16 8 -19 -1 -13 -7 4
-16 2 -20 -5 -5 -9 -25 -6 -79 13 -39 14 -71 22 -71 18 0 -3 23 -30 51 -60 52
-55 54 -72 7 -75 -14 -1 -24 -8 -26 -21 -2 -11 -11 -35 -20 -53 -13 -25 -23
-32 -47 -33 -167 -8 -178 -8 -249 18 -39 14 -75 29 -80 33 -5 5 -3 43 4 90 7
44 10 84 6 87 -7 7 -122 -99 -118 -110 1 -4 -13 -1 -30 6 -34 13 -43 33 -92
199 l-14 46 77 61 78 61 -9 62 c-4 34 -10 63 -12 66 -2 2 -15 -4 -28 -12 -14
-9 -28 -13 -32 -9 -4 4 -4 -1 0 -11 8 -21 3 -19 -49 17 l-29 19 34 35 c18 19
25 31 16 28 -9 -4 -19 -13 -22 -21 -3 -8 -12 -14 -20 -14 -11 0 -16 21 -21 84
-5 55 -12 86 -20 90 -7 2 -16 -2 -19 -10 -3 -8 -21 -21 -40 -30 -31 -15 -33
-20 -25 -41 5 -13 9 -30 9 -36 0 -13 -60 -84 -66 -79 -13 10 -23 -9 -27 -58
-3 -30 -17 -82 -31 -115 -27 -66 -37 -119 -21 -120 6 0 16 -4 24 -9 10 -6 12
-5 7 2 -4 7 -2 12 4 12 7 0 10 -3 8 -7 -3 -5 -10 -23 -17 -40 -7 -18 -16 -33
-20 -33 -4 0 -8 -7 -8 -15 0 -11 37 4 125 50 69 36 127 63 129 61 7 -7 -157
-239 -186 -263 -25 -21 -25 -22 -6 -29 11 -4 23 -9 27 -11 3 -2 13 3 21 11 16
16 196 70 204 62 3 -3 -7 -46 -22 -95 -27 -88 -28 -95 -19 -216 5 -69 8 -125
7 -125 -2 0 -12 18 -23 40 -11 22 -25 40 -30 40 -6 0 -13 0 -17 0 -5 0 -10 21
-13 47 l-5 48 -103 3 c-112 3 -105 -2 -87 60 8 28 -2 28 -32 0 -36 -34 -39
-13 -3 32 36 45 34 52 -6 16 -63 -56 -62 -56 -75 -40 -7 9 -16 11 -23 6 -22
-18 -69 -24 -78 -10 -5 8 -7 -1 -5 -24 6 -52 -13 -65 -107 -75 -74 -7 -78 -9
-63 -24 9 -9 14 -19 11 -22 -3 -3 13 -20 36 -38 23 -19 38 -39 35 -46 -2 -8 0
-11 5 -8 6 3 7 18 4 33 -4 19 -3 23 4 13 8 -11 11 -10 15 5 4 15 5 15 6 3 1
-13 10 -8 36 18 35 35 48 56 20 33 -9 -7 -18 -10 -22 -6 -3 3 -1 6 5 6 7 0 12
6 12 14 0 16 27 29 42 19 7 -4 8 -1 3 7 -6 9 1 12 28 8 20 -2 33 0 31 4 -3 4
2 8 10 8 11 0 2 -26 -33 -102 -40 -86 -72 -164 -76 -188 -5 -26 -18 -49 -26
-45 -5 4 -6 -2 -2 -11 5 -15 9 -12 22 14 8 18 19 32 25 32 5 0 68 -29 139 -65
70 -36 132 -63 138 -60 19 12 7 -26 -45 -146 l-55 -124 6 -120 c6 -150 6 -150
38 -129 16 11 34 14 52 9 28 -7 74 -35 57 -35 -6 0 -25 -13 -44 -30 -33 -29
-33 -29 -15 -57 10 -15 34 -48 53 -71 21 -26 31 -47 25 -50 -6 -4 -13 -16 -16
-27 -4 -18 -5 -18 -6 2 -1 15 -9 25 -25 29 -39 10 -71 1 -70 -19 2 -14 -1 -15
-13 -6 -11 10 -11 14 -1 20 9 6 6 9 -10 9 -13 0 -32 5 -43 10 -15 8 -19 7 -19
-3 0 -8 -6 -20 -14 -27 -8 -6 -12 -19 -9 -27 4 -10 2 -14 -4 -10 -6 4 -34 -22
-63 -56 -29 -34 -57 -65 -64 -68 -9 -6 -316 -15 -353 -10 -9 1 -13 22 -13 69
l0 67 -21 -32 c-12 -18 -25 -33 -31 -33 -5 0 -6 -4 -3 -10 11 -18 -42 8 -128
62 l-84 54 34 73 c18 41 33 75 33 77 0 2 -23 -8 -50 -22 -28 -15 -54 -23 -58
-19 -4 4 -2 10 5 12 7 2 9 11 6 19 -3 8 1 14 8 14 8 0 9 3 4 9 -6 5 -43 11
-83 14 -41 3 -76 7 -78 10 -3 2 51 56 120 118 69 63 123 115 122 117 -2 1 -27
-3 -57 -10 -30 -6 -59 -11 -66 -10 -6 2 -14 -2 -18 -8 -3 -5 -17 -10 -30 -10
-13 0 -27 -5 -30 -10 -4 -6 -11 -8 -16 -5 -5 4 -9 1 -9 -5 0 -7 9 -9 23 -6
l22 6 -23 -12 c-12 -6 -25 -21 -28 -33 -3 -12 -16 -28 -30 -35 -13 -8 -24 -17
-24 -21 0 -5 -10 -14 -22 -20 -20 -11 -27 -7 -73 44 -44 50 -55 56 -99 62 -27
3 -53 8 -58 11 -5 3 -7 24 -4 47 2 23 5 72 5 110 1 51 4 67 15 67 8 0 17 8 19
18 4 16 5 16 6 0 2 -33 19 -18 35 31 24 73 23 74 -34 69 -28 -3 -52 -7 -54 -9
-2 -2 -49 -66 -106 -141 -56 -76 -105 -136 -109 -134 -4 3 -27 0 -52 -6 -24
-5 -53 -11 -64 -12 -20 -1 -20 -8 -20 -338 0 -325 1 -338 20 -352 11 -9 27
-15 35 -15 19 0 80 54 80 71 0 9 3 8 10 -2 6 -10 10 -11 10 -2 0 22 19 13 26
-13 14 -58 37 -13 33 65 -2 27 -1 52 2 54 3 3 50 15 104 27 116 26 140 22 250
-38 l70 -38 31 -89 c17 -49 33 -85 36 -80 3 5 16 45 28 89 12 44 29 84 36 88
8 5 11 14 7 20 -10 18 75 -60 139 -126 l56 -59 51 17 c28 9 53 21 56 26 15 23
24 4 30 -58 8 -90 13 -113 26 -113 6 0 7 5 3 12 -4 6 1 17 11 24 9 7 34 29 55
48 21 19 41 32 44 28 4 -3 4 1 1 10 -12 31 24 26 76 -10 29 -20 54 -42 56 -47
3 -9 -28 -46 -123 -147 -18 -20 -34 -42 -34 -50 0 -7 -9 -41 -19 -75 -14 -46
-16 -64 -7 -73 8 -9 8 -14 -1 -17 -7 -3 -13 -13 -13 -24 0 -10 -4 -19 -10 -19
-13 0 -13 6 0 31 20 36 -1 40 -29 5 -16 -20 -31 -33 -34 -30 -6 6 -20 -32 -21
-56 -1 -15 -121 -37 -214 -39 -24 -1 -41 -4 -39 -8 3 -5 -5 -9 -16 -9 -72 -4
-147 -18 -147 -28 0 -17 13 -32 34 -39 15 -6 17 -4 13 14 -5 18 -2 20 16 14
36 -12 71 -13 84 -3 7 5 18 6 25 2 8 -5 8 -1 -2 11 -10 12 -10 16 -2 11 7 -4
27 -39 44 -77 17 -38 34 -69 38 -69 4 0 13 7 20 15 7 8 18 15 25 15 7 0 19 10
28 23 8 12 31 31 51 42 20 11 36 24 36 30 0 5 5 3 10 -5 5 -8 10 -54 10 -102
l0 -88 -78 0 -79 0 -13 -58 c-18 -83 -39 -130 -61 -137 -10 -4 -19 -11 -19
-16 0 -6 -4 -8 -9 -5 -5 3 -14 -1 -21 -9 -9 -11 -10 -29 -1 -76 6 -34 13 -64
16 -68 4 -3 115 -15 248 -27 l242 -22 31 33 c18 19 29 37 26 40 -4 3 1 3 9 0
10 -4 20 3 29 20 8 16 22 25 37 25 16 0 23 6 23 19 0 10 7 24 15 31 14 11 14
10 5 -15 -6 -15 -9 -30 -6 -32 2 -2 10 13 16 34 7 21 16 43 20 48 5 6 8 12 8
15 0 14 26 60 37 64 12 4 32 -97 51 -256 4 -32 10 -58 13 -58 3 1 40 44 81 97
157 202 146 182 159 282 l13 91 93 0 c95 0 117 8 90 30 -25 21 -21 28 62 118
18 19 33 39 33 43 0 5 5 8 11 7 6 -2 13 7 15 19 2 13 3 23 1 23 -1 0 -38 -16
-82 -35 -43 -19 -82 -31 -85 -28 -3 3 1 8 7 10 7 3 13 9 13 14 0 6 -5 7 -12 3
-6 -4 -3 5 8 19 10 15 27 27 37 27 9 0 25 9 34 20 21 24 30 25 48 6 12 -11 24
-4 78 48 99 94 123 112 138 108 8 -3 4 5 -8 17 -27 25 -29 33 -8 25 11 -5 14
-2 9 12 -4 11 -4 16 1 12 4 -4 21 13 37 37 17 25 33 43 37 40 4 -2 8 1 8 8 0
17 33 67 45 67 5 0 6 5 2 12 -4 6 -3 8 4 4 6 -3 13 -2 16 3 3 4 19 11 36 14
21 5 28 11 24 22 -3 8 -2 15 3 15 6 0 18 18 29 39 10 22 22 37 25 35 4 -2 9
10 13 26 4 20 11 30 24 30 10 0 33 18 50 39 25 31 31 46 26 68 -4 23 10 62 65
178 66 137 72 147 89 134 98 -81 159 -141 227 -218 43 -50 83 -90 88 -88 5 1
24 44 42 94 34 94 53 127 92 156 21 17 24 17 48 1 24 -16 27 -16 46 2 20 18
21 18 38 -5 18 -23 19 -23 29 -5 6 10 12 16 12 12 0 -4 18 12 41 37 22 24 38
48 35 53 -4 7 -42 20 -143 48 -6 1 -10 11 -8 21 2 10 4 22 4 26 1 5 5 6 10 3
5 -3 14 1 21 9 7 8 21 15 31 15 11 0 19 5 19 11 0 5 4 8 9 4 6 -3 24 8 41 25
17 17 35 28 39 26 11 -7 3 34 -20 113 -10 35 -19 69 -19 76 0 7 57 26 153 50
83 21 158 40 166 43 9 3 12 1 7 -6 -7 -12 34 -26 109 -37 l40 -7 -3 51 c-2 28
0 51 5 51 4 0 27 -5 51 -10 32 -8 47 -7 57 2 33 29 45 38 53 38 13 0 32 -71
32 -122 0 -57 19 -59 60 -8 25 31 40 40 97 53 72 17 450 53 459 44 3 -3 23
-83 44 -179 21 -95 50 -211 63 -258 14 -47 33 -121 43 -165 10 -44 21 -82 25
-85 4 -3 9 -26 12 -52 3 -25 10 -55 16 -67 6 -11 11 -32 11 -46 0 -26 -2 -27
-42 -21 -24 3 -96 8 -160 12 -109 6 -118 5 -118 -11 0 -10 -8 -24 -17 -32 -10
-8 -13 -12 -8 -9 7 3 11 -13 12 -39 1 -25 -3 -44 -8 -42 -6 1 -19 -20 -29 -47
-11 -27 -25 -53 -32 -58 -8 -6 -4 -7 12 -3 23 6 23 6 7 -7 -16 -12 -12 -17 53
-56 97 -58 153 -55 223 11 13 12 50 46 81 76 46 44 60 52 67 40 17 -24 59
-117 59 -130 0 -8 4 -8 15 1 12 10 15 10 15 -1 0 -10 3 -10 8 -3 4 6 22 19 40
28 18 9 30 21 27 26 -4 6 1 7 11 3 13 -5 15 -3 9 8 -5 8 1 5 13 -5 l22 -19
-39 -71 c-62 -111 -71 -130 -71 -146 0 -8 -10 -26 -21 -40 -17 -21 -19 -22
-10 -3 20 39 11 38 -16 -2 -15 -22 -31 -44 -35 -50 -29 -36 -108 -151 -108
-157 0 -5 5 -8 12 -8 20 0 83 24 90 35 5 6 8 6 8 -2 0 -7 -10 -21 -21 -32 -12
-11 -19 -26 -16 -33 2 -8 63 -33 133 -56 154 -50 161 -54 139 -72 -13 -11 -15
-10 -9 4 9 24 -4 20 -90 -29 -43 -25 -83 -45 -88 -45 -5 0 -6 -5 -2 -12 4 -7
3 -8 -4 -4 -18 11 -37 -4 -21 -16 11 -8 10 -9 -4 -4 -24 8 -72 -15 -55 -26 10
-6 8 -8 -4 -8 -10 0 -18 -4 -18 -10 0 -5 -11 -10 -25 -10 -14 0 -25 -4 -25
-10 0 -5 -6 -10 -12 -10 -13 0 -24 -5 -118 -58 -38 -21 -60 -28 -70 -22 -8 5
-17 5 -20 0 -3 -5 -59 -18 -125 -29 -109 -18 -206 -47 -291 -86 -18 -8 -71
-30 -119 -49 -48 -18 -83 -36 -79 -38 8 -5 116 -13 304 -23 41 -2 81 -1 88 4
16 9 29 81 15 81 -17 0 -2 48 16 53 16 4 240 -149 241 -166 0 -4 -310 -7 -690
-7 -379 0 -733 -3 -787 -7 -56 -5 477 -11 1242 -14 1661 -8 1974 -8 3465 1
l1195 7 375 51 c206 28 404 54 439 58 l64 7 -7 90 c-3 50 -6 637 -7 1306 -1
1156 -2 1212 -17 1141 l-17 -74 -160 -46 c-88 -26 -226 -68 -307 -94 -81 -26
-156 -45 -165 -42 -10 3 -65 26 -123 50 -64 28 -108 42 -114 36 -5 -5 -11 -25
-13 -45 l-4 -35 56 0 c30 0 55 -3 55 -6 0 -10 -28 -34 -39 -34 -6 0 -11 -4
-11 -10 0 -5 -11 -10 -24 -10 -16 0 -27 -7 -31 -20 -3 -11 -15 -20 -26 -20
-11 0 -19 -7 -19 -16 0 -8 3 -13 7 -11 5 3 9 -16 10 -41 0 -29 -2 -41 -7 -31
-9 15 -70 216 -70 229 0 5 25 22 55 39 30 17 55 33 55 35 0 8 -54 102 -68 118
-7 9 -20 14 -28 11 -11 -4 -14 7 -15 48 -1 92 -25 312 -35 331 -5 7 -60 -19
-82 -40 -16 -14 -28 -8 -60 30 l-23 28 -57 -77 c-31 -42 -56 -79 -55 -83 3 -9
-129 38 -142 51 -6 6 3 21 27 42 131 117 171 158 162 166 -5 5 -60 30 -121 56
-62 26 -113 48 -113 50 0 2 29 8 64 14 63 11 66 13 171 113 99 95 106 103 84
109 -47 13 -99 10 -99 -6 0 -8 -5 -15 -11 -15 -5 0 -8 -4 -5 -9 4 -5 3 -11 -1
-13 -19 -8 -63 -79 -57 -90 5 -8 2 -9 -10 -5 -14 6 -16 3 -11 -16 7 -22 7 -22
-8 -2 -8 11 -13 24 -10 29 4 5 1 6 -4 3 -6 -4 -34 20 -62 53 -47 54 -54 58
-68 45 -21 -22 -29 -13 -43 53 l-12 59 55 59 c30 33 65 72 77 87 16 21 29 27
44 23 19 -4 19 -4 4 8 -12 9 -19 35 -24 89 -6 73 -18 95 -30 62 -4 -8 -14 -15
-24 -15 -11 0 -21 -4 -24 -9 -3 -5 -42 9 -85 31 -63 30 -79 43 -74 56 4 9 8
11 10 6 2 -6 28 12 57 41 53 50 54 52 61 125 7 73 7 74 -11 59 -107 -90 -234
-189 -243 -189 -8 0 -9 -6 -2 -18 19 -35 4 -66 -66 -134 -18 -17 -33 -39 -33
-49 0 -10 -5 -16 -12 -14 -15 5 -39 -12 -54 -40 -6 -11 -28 -28 -48 -38 l-38
-18 -39 36 c-21 19 -45 35 -52 35 -8 0 -7 -4 3 -10 8 -5 10 -10 3 -10 -7 0 -9
-13 -6 -40 5 -38 4 -40 -21 -40 -21 0 -26 5 -26 24 0 49 -12 85 -26 79 -8 -3
-14 1 -14 10 0 8 6 18 13 20 8 4 7 6 -3 6 -10 1 -8 5 7 14 12 6 97 56 188 111
l166 98 -58 63 c-32 34 -63 65 -70 68 -12 6 -169 -60 -366 -152 -81 -37 -107
-47 -107 -38 0 2 10 23 21 48 106 218 179 373 179 379 0 4 9 17 19 29 11 13
64 99 117 193 l98 171 -88 174 c-49 96 -87 175 -85 177 2 2 23 13 46 26 33 18
40 26 32 37 -9 10 -7 13 6 13 14 0 15 3 6 14 -9 10 -8 15 4 20 27 10 16 24
-35 41 l-50 17 60 73 c34 41 65 77 70 80 5 3 7 12 4 20 -4 8 -11 12 -17 8 -6
-3 -7 -1 -3 5 4 6 -3 30 -16 54 l-22 43 -176 -13 c-96 -8 -178 -19 -181 -24
-4 -6 -12 -8 -18 -4 -6 4 -9 1 -5 -7 3 -8 -7 -36 -22 -63 -15 -27 -42 -77 -61
-111 -28 -50 -31 -63 -19 -63 9 0 22 11 28 25 6 14 18 25 26 25 18 0 72 58 72
78 0 9 6 12 15 8 10 -4 15 -1 13 9 -7 35 21 14 60 -45 l44 -64 -29 -9 c-15 -4
-68 -17 -118 -28 -49 -11 -99 -22 -110 -25 -16 -4 -17 -3 -5 5 8 6 11 11 7 11
-5 0 -20 -9 -34 -20 -32 -25 -86 -26 -104 -2 -11 14 -11 15 1 5 8 -7 25 -13
39 -12 l26 1 -25 8 c-15 5 -18 8 -8 9 23 1 17 34 -26 154 -19 53 -32 98 -28
99 16 3 32 5 150 18 67 7 122 16 122 20 0 4 -7 14 -17 21 -26 22 -113 129
-113 140 0 5 9 9 20 9 11 0 20 5 20 10 0 6 7 10 16 10 9 0 27 9 42 20 14 11
29 17 33 13 5 -5 9 -53 10 -107 l1 -100 22 29 c11 16 62 97 113 179 74 121 89
154 80 165 -8 10 -8 12 -1 8 7 -4 34 42 72 121 73 153 152 336 152 351 0 6 4
11 8 11 5 0 9 7 9 15 0 8 -5 11 -10 8 -21 -13 -177 1 -177 16 0 3 10 24 21 46
78 146 93 172 108 189 9 10 23 21 31 25 32 12 250 146 250 152 0 4 -30 26 -67
50 l-67 44 44 7 c77 11 150 9 150 -4 0 -10 2 -10 9 0 5 9 21 12 42 9 19 -2 25
-2 14 1 -13 4 -5 8 25 12 l45 5 37 105 c58 160 52 150 90 140 18 -4 88 -18
156 -30 67 -12 122 -27 122 -32 0 -6 -10 -21 -22 -34 -56 -56 -90 -114 -67
-114 5 0 9 -5 9 -11 0 -6 7 -17 15 -25 21 -22 19 -33 -6 -27 -19 5 -20 4 -10
-14 9 -17 77 -42 85 -31 2 2 17 48 35 103 18 55 40 115 48 133 17 36 16 38
-132 272 -84 133 -83 133 -116 101 -44 -43 -67 -60 -73 -54 -3 4 -6 -1 -6 -10
0 -10 -4 -17 -10 -17 -10 0 -8 14 24 149 l21 92 90 3 c73 2 97 7 125 25 28 18
30 21 10 16 l-25 -7 28 21 c15 13 27 29 27 37 0 13 4 12 30 -1 43 -22 56 -19
74 20 9 19 24 41 32 50 9 8 17 22 18 29 1 8 14 32 29 53 30 44 31 43 -18 149
-23 50 -30 56 -92 85 -158 72 -171 79 -166 100 3 10 12 19 19 19 8 0 14 4 14
10 0 5 -7 7 -15 4 -25 -10 -17 12 11 27 25 13 24 14 -43 25 -37 7 -86 13 -108
13 -28 1 -36 4 -26 10 8 5 21 6 30 3 13 -5 13 -3 -1 12 -22 22 -23 36 -2 36 8
0 12 5 9 11 -4 5 1 20 12 31 14 16 4 13 -42 -12 -110 -60 -155 -81 -167 -79
-15 3 -136 -17 -231 -38 -55 -12 -77 -13 -117 -3 -49 12 -61 36 -14 27 18 -3
22 -1 14 8 -8 9 -6 14 5 19 23 8 15 29 -77 191 -83 145 -94 162 -103 154 -2
-3 7 -83 21 -178 14 -95 24 -177 22 -183 -2 -6 -38 18 -79 54 l-74 65 -165 46
c-91 25 -205 56 -255 69 -49 12 -92 25 -95 29 -9 12 -388 198 -393 193 -2 -3
1 -26 9 -52 7 -26 34 -123 60 -215 25 -92 45 -170 43 -172 -2 -2 -31 29 -64
68 -33 40 -102 121 -154 180 -90 103 -94 107 -112 91 -21 -19 -25 -29 -7 -18
6 4 -3 -11 -22 -34 -18 -23 -37 -42 -42 -42 -4 0 -7 -3 -6 -7 3 -14 -37 -73
-49 -73 -7 0 -13 -7 -13 -15 0 -8 -3 -15 -7 -15 -5 0 -16 -14 -26 -32 -14 -25
-15 -33 -5 -40 9 -6 5 -7 -9 -3 -18 5 -22 3 -17 -9 3 -9 11 -13 17 -9 6 3 7 1
3 -5 -4 -6 -14 -8 -24 -5 -13 5 -14 3 -6 -6 7 -7 63 -16 140 -21 257 -18 306
-23 296 -29 -6 -3 -12 -17 -13 -31 -2 -14 -8 -28 -14 -32 -22 -16 18 -7 56 13
23 11 43 18 46 15 6 -6 -29 -66 -39 -66 -4 0 -8 -6 -8 -13 0 -7 -9 -18 -20
-25 -11 -7 -20 -18 -20 -26 0 -7 -7 -19 -16 -27 -14 -12 -14 -14 2 -26 17 -12
16 -18 -11 -115 -56 -205 -76 -260 -90 -254 -8 3 -17 1 -20 -4 -14 -22 -51 22
-46 54 2 10 -29 -12 -41 -28 -4 -6 -14 -4 -24 5 -10 8 -15 9 -11 2 11 -17 -1
-39 -22 -40 -11 -1 -73 43 -143 101 -68 57 -130 104 -138 104 -8 1 -73 10
-145 20 l-129 17 -18 55 c-29 93 -27 96 50 119 37 11 91 25 120 31 28 7 52 16
52 21 0 5 6 9 14 9 8 0 17 7 20 16 3 8 11 12 16 9 6 -4 9 -3 8 2 -2 5 27 37
63 71 l67 62 -49 117 c-27 64 -52 120 -57 125 -7 7 -131 -21 -172 -39 -16 -7
-27 -10 -47 -12 -26 -2 -12 -18 36 -40 48 -23 122 -76 89 -65 -14 5 -18 1 -18
-16 0 -15 -5 -20 -14 -17 -10 4 -13 1 -9 -9 3 -8 -1 -14 -11 -14 -9 0 -16 -6
-16 -12 0 -7 -21 18 -45 56 -25 38 -47 71 -49 74 -2 2 -34 -27 -70 -65 -83
-85 -87 -71 -6 17 l60 65 -56 3 c-36 2 -60 -1 -64 -9 -5 -6 -13 -8 -20 -4 -8
5 -11 4 -7 -3 8 -12 -2 -42 -14 -42 -4 0 -6 8 -2 18 5 14 3 14 -9 -2 -15 -19
-16 -18 -23 15 -4 19 -21 55 -37 82 -24 38 -36 47 -58 47 -24 0 -27 3 -23 21
4 16 8 17 14 7 6 -9 9 -7 9 9 0 32 21 73 33 66 6 -3 7 -1 3 6 -4 6 0 18 8 27
15 15 50 114 42 121 -2 2 -25 -9 -52 -25 -27 -15 -80 -44 -119 -64 -38 -20
-126 -68 -195 -106 -69 -39 -128 -68 -131 -64 -3 4 -18 95 -33 202 -16 107
-30 198 -32 201 -2 3 -42 1 -89 -6 -70 -9 -85 -9 -81 2 3 7 0 13 -7 14 -7 1
-2 4 11 7 13 4 23 11 22 16 -1 5 5 13 14 18 9 5 16 15 16 23 0 8 9 20 20 28
18 12 19 18 10 43 -10 26 -78 163 -86 173 -2 2 -87 -27 -189 -64 l-186 -68
-42 41 c-40 39 -45 41 -70 30 -15 -7 -27 -20 -28 -28 0 -10 -2 -11 -6 -2 -7
17 -21 15 -27 -5 -6 -20 0 33 10 90 3 20 2 37 -3 37 -5 0 -54 -28 -108 -61z
m-456 -694 l1 -59 -38 37 c-44 43 -49 65 -15 78 13 5 26 16 30 26 6 15 7 15
14 -3 4 -10 8 -46 8 -79z m-1900 -12 c1 -37 -22 -26 -52 23 -15 25 -24 43 -19
40 4 -2 19 4 32 14 l25 19 7 -37 c4 -20 7 -47 7 -59z m-262 -80 c-3 -2 -25 5
-49 16 -23 12 -36 19 -27 17 9 -2 22 4 30 15 7 10 19 19 26 19 7 0 14 6 15 13
1 6 3 -8 5 -32 3 -23 2 -45 0 -48z m-392 47 c-3 -5 -12 -10 -18 -10 -7 0 -6 4
3 10 19 12 23 12 15 0z m2289 -252 c6 -5 20 -15 31 -23 18 -13 19 -14 2 -15
-10 0 -16 -4 -13 -9 3 -5 -2 -8 -12 -7 -19 1 -32 16 -50 59 -11 27 -11 27 10
16 12 -6 27 -16 32 -21z m186 -132 c0 -8 -4 -17 -9 -20 -10 -7 -23 19 -14 28
11 11 23 6 23 -8z m2369 -403 c-10 -65 -23 -153 -30 -195 -6 -43 -15 -78 -19
-78 -6 0 -102 202 -127 267 -3 6 15 24 39 40 24 15 45 30 48 33 14 15 77 50
91 50 15 0 14 -11 -2 -117z m1140 -300 c62 -49 70 -57 49 -50 -12 4 -18 1 -18
-10 0 -13 -3 -13 -15 -3 -8 7 -15 8 -15 2 0 -5 -22 -33 -50 -62 -50 -52 -50
-52 -50 -24 0 31 18 151 25 172 7 20 25 14 74 -25z m-4734 5 c25 -12 45 -24
45 -27 0 -4 -14 -20 -30 -38 -17 -18 -30 -37 -30 -43 0 -6 -4 -9 -9 -6 -5 3
-11 -1 -15 -9 -11 -29 -26 -15 -26 23 0 21 -3 41 -6 44 -7 8 -98 -32 -103 -44
-3 -8 -31 36 -31 49 0 4 140 71 152 72 4 1 28 -9 53 -21z m-386 -35 l63 -6
-41 -39 c-23 -21 -43 -38 -46 -38 -10 1 -35 -28 -35 -39 0 -29 -19 -6 -30 37
-15 53 -40 98 -40 70 0 -21 -20 -28 -43 -16 -16 8 -17 7 -8 -10 12 -22 7 -27
-41 -52 -34 -16 -34 -20 -3 -70 18 -29 21 -40 11 -40 -7 0 -16 -10 -19 -21 -4
-14 -11 -20 -20 -16 -10 4 -14 0 -13 -11 2 -9 -8 -27 -22 -38 l-25 -22 94 -6
c52 -3 109 -7 128 -9 20 -1 36 -8 39 -17 3 -8 1 -12 -3 -8 -8 8 -24 -3 -109
-77 -31 -26 -56 -54 -56 -63 0 -8 -6 -12 -15 -8 -8 3 -15 0 -15 -7 0 -15 -29
27 -77 111 l-36 64 17 61 c9 34 26 92 37 129 l19 67 73 40 c77 43 99 47 216
34z m684 -100 c-3 -7 -10 -13 -15 -13 -6 0 -7 7 -4 16 3 8 2 12 -4 9 -14 -9
-12 9 2 23 10 10 14 9 19 -5 3 -10 4 -24 2 -30z m5071 -43 c-6 -6 -10 -2 -11
12 -2 16 1 18 10 9 7 -7 8 -14 1 -21z m-287 -105 c0 -8 -4 -12 -9 -9 -4 3 -8
2 -9 -3 0 -4 -3 -28 -6 -53 -3 -25 -6 -53 -6 -62 -1 -10 -4 -18 -7 -18 -3 0
-7 -12 -8 -27 -2 -28 -2 -28 14 5 9 18 34 45 55 60 31 23 36 31 26 42 -8 8 -8
11 -1 7 11 -7 171 -207 189 -236 5 -10 4 -12 -3 -7 -7 4 -74 0 -151 -9 -76 -9
-192 -15 -257 -13 -104 2 -122 6 -152 26 -25 17 -33 19 -29 8 4 -9 3 -15 -1
-15 -20 3 -32 -2 -27 -11 6 -10 -37 -33 -88 -45 l-27 -7 -1 88 c0 49 -3 83 -6
75 -8 -19 -41 -51 -53 -51 -5 0 -7 -7 -4 -15 12 -29 -16 -14 -96 53 l-82 67
149 6 148 5 215 77 c118 41 218 76 221 76 3 1 6 -6 6 -14z m-791 -133 c15 -8
12 -12 -22 -21 -21 -6 -50 -11 -63 -11 -23 0 -24 1 -6 20 10 11 15 20 11 20
-4 0 -5 4 -1 9 6 10 50 1 81 -17z m-723 -12 l48 -13 -68 -40 c-151 -87 -179
-101 -163 -81 8 10 20 22 25 26 6 4 6 8 2 8 -4 0 -3 9 3 20 6 11 15 18 20 15
6 -3 7 1 4 9 -4 11 2 19 20 26 14 5 26 12 26 15 0 4 -4 3 -10 0 -14 -9 -13 8
2 23 7 7 19 10 28 8 8 -2 37 -10 63 -16z m160 -85 c26 -16 47 -35 47 -42 0 -6
3 -13 8 -15 4 -1 34 -43 66 -93 32 -49 63 -92 68 -93 4 -2 6 -8 2 -13 -3 -5 8
-21 25 -35 17 -14 31 -32 31 -39 0 -8 7 -18 15 -23 13 -7 11 -11 -12 -23 -15
-7 -35 -22 -44 -31 -9 -10 -25 -18 -35 -18 -16 0 -17 -2 -4 -10 11 -7 7 -10
-18 -10 -20 0 -35 6 -38 15 -8 20 -24 19 -24 -1 0 -9 -5 -12 -11 -8 -8 4 -10
30 -7 75 3 38 1 66 -3 63 -5 -3 -9 -37 -9 -75 0 -62 -2 -70 -17 -65 -10 3 -54
8 -98 12 -93 8 -113 19 -175 99 -24 31 -49 59 -57 63 -29 17 -14 51 87 190
l103 142 27 -17 c15 -10 48 -31 73 -48z m-2173 -64 c16 -32 9 -34 -41 -15 -58
23 -65 30 -40 43 12 7 21 18 21 27 0 18 40 -19 60 -55z m-1823 -27 c7 -27 13
-62 13 -79 1 -28 2 -29 10 -7 6 13 27 31 48 40 21 10 47 25 56 35 20 19 46 23
46 6 0 -6 -7 -8 -16 -5 -11 4 -15 2 -11 -8 4 -10 1 -13 -9 -9 -14 5 -20 -12
-6 -20 4 -2 1 -2 -7 0 -8 2 -11 -2 -7 -12 3 -8 1 -15 -4 -15 -5 0 -16 -12 -24
-27 -8 -16 -26 -40 -40 -55 -32 -33 -33 -51 -3 -67 12 -6 15 -10 7 -8 -13 4
-15 -9 -13 -82 2 -48 9 -105 17 -127 15 -43 11 -107 -5 -82 -6 9 -9 9 -9 1 0
-6 -13 -11 -29 -11 -27 1 -29 3 -35 61 -3 33 -9 63 -12 66 -3 3 -19 -2 -37
-12 -26 -15 -33 -16 -42 -5 -5 7 -15 13 -22 13 -13 0 -42 -25 -30 -25 15 0
-28 -38 -51 -45 -17 -5 -21 -12 -17 -27 7 -21 7 -21 -78 55 -18 15 -38 25 -46
22 -8 -3 -69 -17 -135 -30 -67 -14 -161 -34 -211 -45 -49 -11 -115 -25 -145
-30 -30 -6 -63 -13 -73 -16 -16 -5 -17 -4 -1 30 17 34 49 52 87 47 9 -1 17 3
17 8 0 6 -7 11 -15 11 -16 0 -21 25 -6 35 5 3 21 0 34 -6 21 -9 32 -7 68 12
46 25 49 27 89 59 21 17 23 21 10 30 -12 8 -11 10 8 10 12 0 22 -5 22 -11 0
-11 44 16 46 29 2 21 18 42 31 42 8 0 11 -4 8 -10 -3 -5 -2 -10 4 -10 17 0 23
20 9 33 -19 19 -56 27 -61 13 -2 -6 -8 -7 -13 -3 -10 9 16 28 28 21 4 -3 8 0
8 5 0 21 31 10 40 -14 10 -26 17 -29 45 -19 13 5 14 8 3 15 -9 6 -5 9 14 9 33
0 45 16 18 23 -11 3 -20 10 -20 16 0 14 74 34 78 21 2 -6 8 -10 13 -10 17 0
104 44 117 60 12 13 13 12 9 -7 -3 -12 1 -24 8 -27 17 -6 65 20 82 44 8 11 21
20 29 20 8 0 17 7 21 15 3 9 19 23 35 31 27 14 29 19 23 51 -10 55 17 36 32
-23z m2463 36 c0 -5 -5 -10 -11 -10 -5 0 -7 5 -4 10 3 6 8 10 11 10 2 0 4 -4
4 -10z m-3104 -96 c-3 -8 -1 -14 4 -14 6 0 10 4 10 8 0 5 6 9 13 9 8 0 12 -13
11 -34 -2 -28 0 -32 12 -22 8 6 14 20 14 30 0 11 7 19 18 19 9 0 13 -4 7 -8
-5 -4 -11 -18 -13 -32 -1 -13 -7 -27 -12 -30 -5 -3 -1 -14 10 -23 24 -20 26
-37 5 -37 -8 0 -15 8 -15 18 0 13 -2 14 -9 4 -4 -8 -12 -13 -17 -13 -30 3 -49
-15 -45 -41 0 -5 -8 -8 -19 -8 -11 0 -20 -7 -20 -15 0 -19 -35 -55 -73 -74
-16 -9 -26 -20 -22 -28 3 -8 0 -11 -6 -8 -5 4 -16 1 -24 -5 -12 -10 -15 -10
-15 2 0 8 4 18 9 24 5 5 24 38 43 74 58 108 79 144 95 155 9 7 17 22 18 36 4
39 5 40 16 34 6 -4 8 -13 5 -21z m454 -31 c0 -5 -7 -17 -16 -28 -14 -19 -14
-19 -10 5 2 14 5 26 5 28 2 6 21 1 21 -5z m-295 -10 c-11 -3 -23 -10 -27 -16
-4 -6 -10 -8 -15 -4 -10 11 17 27 42 26 l20 -1 -20 -5z m50 -23 c3 -5 1 -10
-4 -10 -6 0 -11 5 -11 10 0 6 2 10 4 10 3 0 8 -4 11 -10z m55 0 c0 -13 -28
-25 -38 -16 -3 4 0 11 8 16 20 13 30 12 30 0z m-90 -10 c0 -5 -7 -10 -15 -10
-8 0 -15 5 -15 10 0 6 7 10 15 10 8 0 15 -4 15 -10z m130 0 c13 -8 13 -10 -2
-10 -9 0 -20 5 -23 10 -8 13 5 13 25 0z m-1920 -50 c-1 -14 -5 -45 -11 -70
-12 -57 -39 -207 -43 -240 -2 -14 -6 -32 -9 -40 -3 -8 -10 -34 -15 -58 l-10
-43 64 -32 c40 -20 63 -36 60 -44 -3 -7 -1 -13 3 -13 5 0 12 6 14 13 4 9 6 9
6 0 1 -19 -15 -25 -85 -30 l-64 -4 -1 28 c-1 15 0 40 1 54 1 27 -68 117 -153
198 -38 36 -56 95 -43 144 6 24 86 87 111 87 8 0 15 4 15 10 0 5 11 12 25 16
14 3 25 12 25 20 0 8 9 14 20 14 11 0 20 5 20 10 0 6 9 10 21 10 12 0 17 4 14
11 -4 6 2 5 14 -3 13 -8 21 -23 21 -38z m6690 -20 c0 -5 -4 -10 -9 -10 -5 0
-12 -16 -15 -35 -5 -22 -11 -33 -18 -29 -6 4 -8 3 -4 -4 3 -6 -1 -29 -11 -50
-13 -31 -22 -39 -42 -39 -24 0 -24 0 -6 13 18 13 17 14 -10 10 -17 -2 -25 -1
-18 1 6 2 16 17 22 34 5 16 15 29 21 29 6 0 15 12 20 26 6 14 14 22 20 19 5
-3 15 5 22 19 11 26 28 35 28 16z m-3805 -40 c-3 -5 -12 -10 -18 -10 -7 0 -6
4 3 10 19 12 23 12 15 0z m-1215 -14 c0 -3 -4 -8 -10 -11 -5 -3 -10 -1 -10 4
0 6 5 11 10 11 6 0 10 -2 10 -4z m4857 -72 c-3 -3 -12 -4 -19 -1 -8 3 -5 6 6
6 11 1 17 -2 13 -5z m7 -33 c3 -4 -6 -6 -19 -3 -14 2 -25 6 -25 8 0 8 39 4 44
-5z m-5134 -71 c0 -5 -5 -10 -11 -10 -5 0 -7 5 -4 10 3 6 8 10 11 10 2 0 4 -4
4 -10z m-381 -160 c1 -121 -1 -160 -11 -160 -16 0 -188 113 -188 123 0 13 27
37 34 29 4 -3 9 3 12 13 3 11 22 31 42 44 20 12 53 43 72 66 19 24 36 44 37
44 1 1 2 -71 2 -159z m6718 74 c-3 -3 -12 -4 -19 -1 -8 3 -5 6 6 6 11 1 17 -2
13 -5z m-213 -26 c-10 -13 -19 -24 -19 -24 0 -1 -11 -5 -25 -9 -20 -6 -17 -1
15 23 49 37 54 39 29 10z m-6244 -68 c0 -5 -4 -10 -10 -10 -5 0 -10 5 -10 10
0 6 5 10 10 10 6 0 10 -4 10 -10z m809 -47 c-1 -32 -4 -47 -6 -34 -4 18 -7 21
-13 10 -15 -24 -19 -5 -8 39 15 60 28 52 27 -15z m-559 -103 c0 -5 -2 -10 -4
-10 -3 0 -8 5 -11 10 -3 6 -1 10 4 10 6 0 11 -4 11 -10z m-537 -32 c-3 -18
-11 -67 -18 -108 -7 -41 -12 -76 -10 -78 1 -2 29 31 61 72 33 41 62 75 65 76
6 0 35 -91 44 -141 5 -26 2 -41 -8 -50 -12 -12 -12 -15 2 -26 25 -19 -1 -16
-82 12 -59 20 -85 36 -138 85 -35 33 -56 58 -46 54 9 -3 17 -1 17 5 0 5 13 25
28 43 16 18 31 41 35 51 4 9 12 17 19 16 10 0 10 -2 1 -6 -7 -2 -13 -9 -13
-15 0 -6 6 -6 15 2 8 7 15 19 15 26 0 8 4 14 9 14 5 0 7 -15 4 -32z m639 2
c28 -17 59 -40 71 -50 11 -11 29 -22 39 -26 20 -6 25 -24 7 -24 -20 0 -199 51
-232 66 -31 14 -31 15 -4 11 15 -2 27 0 27 4 0 5 -6 9 -12 10 -7 0 -3 5 10 11
12 6 22 15 22 20 0 15 22 8 72 -22z m-197 -82 c1 -2 36 -42 78 -90 l77 -87
-46 -78 c-39 -66 -183 -296 -288 -459 -15 -25 -26 -47 -23 -50 2 -3 29 4 58
15 59 21 223 71 233 71 6 0 -51 -80 -151 -214 -29 -38 -50 -73 -47 -78 3 -4
-2 -5 -11 -2 -14 6 -72 116 -89 170 -6 21 -143 124 -164 124 -6 0 -12 6 -14
13 -4 9 -47 13 -159 15 -98 3 -160 8 -171 16 -15 11 -11 16 33 45 37 24 47 36
41 47 -7 13 45 134 88 201 14 21 15 21 34 5 18 -16 19 -16 14 6 -4 12 -2 20 2
17 5 -3 11 1 14 7 3 7 4 2 1 -12 -4 -24 -4 -24 7 3 21 49 31 31 44 -76 4 -32
11 -60 15 -63 5 -2 32 19 61 48 29 30 65 61 79 70 15 10 27 23 26 30 -1 41 4
48 33 48 16 0 44 -9 62 -20 38 -23 52 -25 45 -7 -3 7 4 19 14 25 10 7 19 19
19 27 0 8 8 15 18 15 14 0 15 2 2 10 -8 5 -40 10 -71 10 -41 0 -56 4 -56 14 0
9 7 12 16 8 9 -3 13 -2 9 2 -6 7 -1 15 42 64 12 12 18 27 15 32 -3 5 0 7 7 5
9 -4 22 11 36 39 17 36 25 44 43 41 12 -2 23 -6 24 -7z m-175 -110 c-61 -118
-74 -131 -86 -83 -3 14 -10 25 -14 25 -20 0 5 40 33 54 18 9 47 34 66 56 19
22 37 38 39 35 3 -3 -14 -42 -38 -87z m3910 2 c0 -5 -4 -10 -10 -10 -5 0 -10
5 -10 10 0 6 5 10 10 10 6 0 10 -4 10 -10z m-5190 -124 c0 -1 -10 -3 -22 -3
-19 -2 -20 0 -8 8 12 9 12 10 -3 5 -10 -3 -21 -6 -23 -6 -3 0 -3 -4 1 -9 3 -5
-5 -17 -17 -25 -21 -15 -23 -15 -35 8 -9 17 -19 24 -34 21 -20 -4 -20 -3 -4
21 43 67 43 67 97 22 26 -23 48 -42 48 -42z m4890 74 c0 -5 -10 -10 -22 -10
-19 0 -20 2 -8 10 19 13 30 13 30 0z m250 -10 c-8 -5 -19 -10 -25 -10 -5 0 -3
5 5 10 8 5 20 10 25 10 6 0 3 -5 -5 -10z m-285 -20 c-16 -4 -39 -8 -50 -8 -16
0 -15 2 5 8 14 4 36 8 50 8 22 0 22 -1 -5 -8z m1720 -38 c22 -21 49 -44 60
-50 17 -10 18 -11 3 -12 -10 0 -18 -5 -18 -11 0 -6 9 -9 19 -6 14 3 30 -10 64
-57 25 -33 54 -69 64 -79 19 -16 21 -16 37 2 10 11 15 25 11 30 -3 6 -2 11 2
11 5 0 15 17 22 37 23 61 29 64 143 61 l103 -3 -80 -46 c-44 -26 -113 -63
-153 -83 -40 -20 -70 -41 -67 -46 3 -5 -6 -6 -22 -1 -37 10 -193 15 -193 6 0
-11 71 -134 81 -140 15 -10 48 19 79 69 16 25 32 46 36 46 3 0 -1 -11 -10 -25
-26 -40 -55 -88 -73 -122 -9 -18 -20 -33 -24 -33 -18 0 -119 53 -114 60 3 4
-4 6 -15 3 -22 -6 -28 12 -7 21 6 4 1 4 -12 2 -22 -4 -21 -3 8 23 17 15 31 34
31 42 1 8 7 3 16 -11 l15 -25 -7 25 c-19 72 -14 69 -94 49 -40 -10 -90 -21
-112 -24 -40 -7 -40 -7 -34 21 3 16 10 61 16 99 11 69 12 71 83 137 40 37 79
68 87 68 8 0 33 -17 55 -38z m-996 -138 c24 -31 29 -87 7 -78 -7 3 -16 -2 -19
-10 -6 -16 -48 -22 -60 -10 -4 4 10 16 31 26 60 32 60 38 2 39 -30 0 -49 3
-42 6 6 2 12 12 12 20 0 13 3 13 15 3 13 -10 15 -9 15 9 0 28 14 27 39 -5z
m-95 -116 c-4 -7 -16 -19 -26 -26 -20 -14 -24 -32 -8 -32 12 0 56 42 53 51 -1
3 5 6 13 6 11 0 14 -17 14 -78 0 -76 0 -77 -27 -82 -24 -4 -26 -4 -10 8 10 7
17 25 17 44 0 28 -3 31 -29 31 -17 0 -33 5 -37 11 -7 13 -64 -38 -64 -58 0
-19 17 -16 29 4 5 10 13 15 16 11 10 -10 -4 -60 -14 -53 -5 2 -11 -1 -14 -9
-4 -9 2 -12 21 -10 32 3 49 -6 31 -17 -11 -7 -10 -9 4 -9 9 0 17 -4 17 -10 0
-5 5 -10 11 -10 5 0 7 5 4 10 -3 6 -2 10 4 10 5 0 12 -4 16 -10 3 -5 13 -6 22
-3 10 4 14 2 11 -7 -7 -22 -47 -19 -84 6 -19 13 -34 21 -34 18 0 -2 -9 0 -20
6 -11 6 -18 16 -14 22 4 6 -1 8 -15 3 -12 -3 -21 -2 -21 3 0 6 5 12 11 14 7 2
5 9 -5 17 -14 12 -16 12 -10 -3 9 -24 -9 -19 -34 8 l-21 25 72 45 c40 25 81
53 92 61 23 18 39 20 29 3z m113 -60 c-3 -8 -6 -5 -6 6 -1 11 2 17 5 13 3 -3
4 -12 1 -19z m0 -85 c-2 -16 -4 -5 -4 22 0 28 2 40 4 28 2 -13 2 -35 0 -50z
m883 53 c0 -3 -4 -8 -10 -11 -5 -3 -10 -1 -10 4 0 6 5 11 10 11 6 0 10 -2 10
-4z m187 -28 c-3 -8 -6 -5 -6 6 -1 11 2 17 5 13 3 -3 4 -12 1 -19z m-1462 -18
c3 -5 2 -10 -4 -10 -5 0 -13 5 -16 10 -3 6 -2 10 4 10 5 0 13 -4 16 -10z m845
-20 c0 -10 -4 -21 -8 -24 -5 -3 -9 8 -9 24 0 16 4 27 9 24 4 -3 8 -14 8 -24z
m-1150 0 c10 -18 8 -20 -17 -19 -15 0 -22 3 -15 6 6 2 12 11 12 19 0 20 7 17
20 -6z m285 0 c3 -6 -1 -7 -9 -4 -18 7 -21 14 -7 14 6 0 13 -4 16 -10z m-3515
-4 c0 -2 -8 -10 -17 -17 -16 -13 -17 -12 -4 4 13 16 21 21 21 13z m3833 -19
c-2 -4 7 -6 21 -3 14 3 26 0 26 -5 0 -5 -4 -9 -9 -9 -5 0 -15 -2 -23 -5 -7 -2
-23 3 -35 13 l-23 17 24 0 c13 0 22 -4 19 -8z m-353 -1 c0 -2 -9 -6 -20 -9
-11 -3 -18 -1 -14 4 5 9 34 13 34 5z m953 -62 c28 -15 59 -30 67 -34 8 -5 14
-14 12 -20 -2 -9 5 -11 20 -6 13 3 61 13 108 22 85 15 209 42 243 51 24 6 22
-22 -4 -48 -15 -15 -30 -20 -53 -17 -20 2 -33 -1 -33 -8 0 -6 9 -9 19 -6 19 5
25 -12 8 -23 -6 -4 -7 -11 -4 -17 4 -7 2 -8 -5 -4 -9 6 -9 11 -1 21 10 12 7
12 -14 2 -17 -8 -21 -15 -15 -23 6 -8 4 -14 -6 -18 -8 -3 -15 -15 -15 -26 0
-12 -4 -19 -8 -16 -5 3 -16 -8 -26 -25 -9 -16 -21 -29 -27 -29 -27 0 42 -42
161 -98 74 -35 146 -71 159 -81 l24 -18 -39 -69 c-55 -98 -77 -137 -90 -158
-11 -18 -16 -17 -104 13 -50 17 -96 29 -100 26 -5 -3 -10 1 -12 8 -2 7 -43 49
-92 94 l-89 80 -81 13 c-60 10 -81 10 -84 2 -2 -7 -8 -12 -13 -12 -5 0 -27
-20 -50 -45 -35 -38 -47 -44 -75 -42 -52 3 -56 29 -20 112 l31 71 39 -10 c36
-8 41 -7 55 15 9 12 52 66 97 118 44 53 79 102 77 109 -3 8 1 10 13 5 12 -4
15 -2 12 8 -3 8 -14 15 -26 15 -12 1 -19 -3 -16 -7 3 -5 0 -9 -6 -9 -7 0 -30
-15 -52 -34 -24 -21 -46 -32 -56 -29 -10 4 -13 2 -8 -5 4 -7 3 -19 -2 -28 -7
-13 -11 -7 -16 25 -3 24 -11 39 -16 36 -11 -7 -12 1 -4 32 4 14 11 20 22 16
13 -4 14 -3 4 5 -11 7 -11 17 -1 51 7 22 18 41 26 41 7 0 37 -12 66 -26z
m-4383 -4 c8 -5 11 -10 5 -10 -5 0 -17 5 -25 10 -8 5 -10 10 -5 10 6 0 17 -5
25 -10z m-818 -122 c29 -25 67 -58 83 -72 l30 -26 -60 26 c-33 14 -77 31 -97
36 -21 6 -38 14 -38 18 0 5 -8 11 -17 13 -12 3 -10 5 7 6 14 1 31 5 39 10 11
7 11 10 0 17 -8 5 -21 18 -29 29 -14 18 -14 18 7 4 13 -9 46 -36 75 -61z m-82
22 c0 -5 -2 -10 -4 -10 -3 0 -8 5 -11 10 -3 6 -1 10 4 10 6 0 11 -4 11 -10z
m5287 -42 c-3 -8 -6 -5 -6 6 -1 11 2 17 5 13 3 -3 4 -12 1 -19z m-7 -22 c0 -2
-7 -9 -15 -16 -13 -11 -14 -10 -9 4 5 14 24 23 24 12z m-5063 -104 c2 -20 1
-56 -2 -79 l-6 -43 -55 41 c-30 23 -54 44 -54 46 0 3 7 0 15 -7 19 -16 30 -8
61 46 15 25 29 42 32 39 3 -3 7 -22 9 -43z m473 28 c0 -5 -7 -10 -16 -10 -8 0
-12 5 -9 10 3 6 10 10 16 10 5 0 9 -4 9 -10z m4525 0 c-3 -5 -12 -10 -18 -10
-7 0 -6 4 3 10 19 12 23 12 15 0z m-4481 -140 c-21 -38 -41 -70 -45 -70 -20 0
-17 22 6 42 14 12 23 28 20 36 -2 7 -1 11 3 8 5 -3 16 8 26 25 33 56 26 29
-10 -41z m-534 -78 l0 -58 -45 -12 c-44 -12 -103 -16 -77 -5 6 2 12 9 12 15 0
15 29 40 40 33 5 -3 7 0 4 9 -3 8 -13 12 -22 9 -9 -3 6 11 33 30 28 20 51 36
53 36 1 1 2 -25 2 -57z m-798 -33 c6 -4 8 -14 6 -24 -3 -16 -6 -15 -33 8 -23
21 -26 26 -12 27 9 0 18 8 18 18 1 14 2 13 6 -3 3 -11 10 -23 15 -26z m3431
-269 c5 -25 4 -31 -3 -20 -15 23 -12 1 5 -28 16 -30 51 -200 58 -284 1 -14 5
-24 10 -21 4 2 7 -1 7 -7 0 -13 -46 -8 -143 14 -38 9 -86 16 -108 16 -21 0
-39 3 -39 6 0 3 16 40 36 82 27 58 38 72 46 61 8 -11 8 -10 4 5 -4 12 14 61
51 137 61 124 60 124 76 39z m-1007 -103 c8 3 14 1 14 -5 0 -5 -7 -12 -15 -16
-10 -4 -14 -13 -10 -28 3 -13 7 -46 9 -75 3 -40 0 -50 -10 -46 -9 3 -14 -3
-15 -18 -2 -24 -2 -24 -6 -1 -4 22 -23 32 -23 11 0 -12 -25 -39 -36 -39 -3 0
-2 6 4 13 6 6 19 37 30 67 10 30 22 62 26 71 5 12 1 18 -16 22 -12 4 -25 3
-28 -2 -7 -11 -110 -22 -110 -12 0 5 6 9 13 8 6 0 30 1 52 3 39 2 39 2 10 10
l-30 8 28 1 c16 0 26 5 23 10 -3 5 7 14 23 19 16 6 33 21 37 34 8 22 9 21 12
-9 2 -23 7 -30 18 -26z m593 -146 c7 -5 9 -11 5 -14 -5 -3 -15 1 -22 9 -14 16
-5 18 17 5z m-648 -101 c21 -12 27 -34 7 -27 -7 2 -18 -3 -25 -12 -11 -14 -12
-11 -13 17 0 35 2 37 31 22z m109 -35 c-10 -12 -9 -15 6 -16 13 0 14 -2 5 -6
-10 -4 -11 -7 -1 -13 7 -4 9 -13 5 -19 -5 -9 -11 -7 -20 6 -13 17 -14 16 -8
-4 3 -14 1 -23 -6 -23 -6 0 -11 -8 -11 -17 -1 -17 -1 -17 -11 0 -11 19 -3 74
13 95 6 6 17 12 25 12 13 0 13 -3 3 -15z m1025 -97 c-3 -29 -8 -60 -11 -68 -2
-10 12 -24 40 -40 25 -13 42 -28 39 -33 -3 -5 0 -13 7 -17 9 -6 7 -10 -9 -15
-11 -3 -21 -11 -21 -16 0 -6 4 -7 10 -4 5 3 7 0 5 -8 -3 -7 1 -30 10 -50 8
-20 15 -41 15 -47 0 -12 -101 38 -112 55 -4 6 -39 50 -77 97 -39 48 -71 90
-71 93 0 4 18 5 41 1 34 -5 44 -3 59 14 9 11 20 17 23 14 3 -4 9 5 13 20 3 14
12 26 20 26 8 0 14 7 14 15 0 8 3 15 6 15 3 0 3 -24 -1 -52z m2780 -288 c56
-29 65 -50 36 -79 -12 -12 -20 -24 -19 -27 0 -3 -14 -31 -32 -61 -33 -54 -34
-55 -44 -32 -5 13 -43 91 -83 172 -40 82 -73 150 -73 153 0 2 37 -19 83 -48
45 -28 104 -63 132 -78z m970 8 c60 -12 104 -23 97 -26 -7 -2 -12 -9 -12 -16
0 -6 -20 -32 -45 -56 -24 -24 -42 -46 -40 -50 2 -3 -5 -6 -15 -7 -14 -1 -31
20 -65 84 -25 47 -45 87 -45 89 0 6 10 5 125 -18z m-4102 -11 c7 3 9 3 5 -2
-4 -4 17 -35 47 -68 30 -33 55 -64 55 -69 0 -13 -26 -38 -39 -38 -6 0 -11 -4
-11 -10 0 -5 -4 -10 -8 -10 -9 0 -73 178 -71 200 0 10 2 11 6 2 2 -6 10 -9 16
-5z m3558 -144 c72 -24 78 -29 62 -41 -10 -7 -17 -20 -15 -29 2 -11 -1 -14
-12 -10 -11 4 -13 1 -9 -10 4 -10 2 -14 -4 -10 -10 6 -9 -42 1 -69 3 -6 -2
-23 -9 -37 -7 -14 -10 -29 -7 -33 4 -4 2 -4 -5 -1 -6 4 -13 3 -15 -2 -5 -14
-48 -24 -48 -11 0 6 -8 9 -17 6 -10 -2 -27 -7 -39 -10 -20 -6 -21 -2 -27 84
-6 82 -9 93 -34 114 -25 22 -26 25 -14 55 13 29 17 31 62 31 27 0 86 -12 130
-27z m-4501 -30 c-11 -17 -11 -17 -6 0 3 10 7 26 7 35 1 15 2 15 6 0 2 -10 -1
-25 -7 -35z m3818 -38 c2 -2 -3 -16 -12 -32 -8 -15 -16 -23 -16 -18 -1 6 -5 2
-8 -8 -6 -14 -12 -9 -30 29 l-23 47 43 -7 c23 -4 44 -9 46 -11z m318 -22 c-15
-4 -16 -7 -5 -14 11 -7 10 -9 -5 -9 -11 0 -17 -3 -13 -6 11 -11 -17 -33 -30
-23 -7 7 -14 6 -18 -1 -7 -11 41 -114 114 -248 l40 -72 -159 82 c-88 46 -160
87 -160 92 0 8 93 168 113 194 6 8 33 12 76 11 36 -1 57 -4 47 -6z m-2301 -25
c25 -11 32 -23 18 -31 -5 -2 -19 6 -33 19 -27 27 -24 30 15 12z m-1125 -18 c0
-5 -2 -10 -4 -10 -3 0 -8 5 -11 10 -3 6 -1 10 4 10 6 0 11 -4 11 -10z m331
-100 c12 -33 27 -60 33 -60 6 0 44 25 84 55 45 34 74 50 77 42 2 -6 6 -44 10
-83 l6 -71 -36 -22 c-20 -11 -47 -23 -61 -25 -14 -3 -32 -10 -40 -17 -8 -6
-25 -8 -40 -5 -24 6 -25 6 -10 -9 20 -21 20 -26 -1 -18 -12 5 -14 3 -8 -8 5
-8 -1 -5 -13 5 -12 11 -24 17 -25 15 -2 -2 -23 -32 -47 -66 -43 -63 -73 -78
-45 -22 9 16 13 35 9 41 -5 8 -2 9 10 5 10 -4 15 -3 11 4 -4 5 -1 16 5 24 12
15 1 20 -58 27 -23 3 -23 4 9 36 28 28 31 36 21 56 -9 20 -7 28 10 46 17 18
19 26 10 41 -16 26 -15 39 4 39 8 0 22 7 30 15 25 24 32 18 55 -45z m-492 -65
c1 -7 -13 -9 -34 -7 -31 4 -35 7 -29 26 4 11 12 24 18 28 6 5 7 8 1 8 -5 0 -3
5 5 10 12 7 18 2 27 -23 6 -18 12 -37 12 -42z m1531 -62 l-1 -98 -24 46 -24
47 21 51 c12 28 23 51 25 51 2 0 3 -44 3 -97z m2540 -9 l0 -46 -32 21 c-18 11
-34 24 -35 28 -2 6 45 37 65 42 1 1 2 -20 2 -45z m1124 -97 c17 -13 13 -13
-38 -4 -42 8 -53 13 -41 19 8 5 13 14 9 19 -7 12 40 -11 70 -34z m-1075 -303
c5 4 13 1 17 -5 5 -8 3 -9 -6 -4 -10 6 -11 1 -6 -21 5 -25 5 -27 -5 -9 -17 29
-19 31 -28 17 -6 -10 -11 -10 -21 3 -11 13 -10 14 5 8 15 -5 17 -3 12 12 -6
15 -5 16 7 6 8 -7 20 -10 25 -7z m-3408 -11 c13 -16 12 -17 -3 -4 -17 13 -22
21 -14 21 2 0 10 -8 17 -17z m3354 -24 c11 -16 1 -19 -13 -3 -7 8 -8 14 -3 14
5 0 13 -5 16 -11z m-55 -33 c0 -3 -4 -8 -10 -11 -5 -3 -10 -1 -10 4 0 6 5 11
10 11 6 0 10 -2 10 -4z m106 -43 c0 -38 11 -67 52 -141 29 -52 49 -98 46 -104
-5 -7 -2 -8 6 -3 10 6 12 4 7 -9 -4 -10 -3 -15 3 -11 6 3 10 -4 10 -17 0 -13
4 -18 8 -12 8 13 45 28 38 15 -7 -11 56 -24 63 -13 3 5 16 15 29 21 23 12 23
12 20 -32 -3 -32 -13 -55 -37 -83 -18 -22 -30 -32 -26 -24 4 8 0 6 -9 -4 -8
-10 -12 -24 -9 -30 4 -6 -1 -5 -10 3 -15 12 -17 12 -11 -4 5 -12 4 -16 -4 -11
-6 3 -24 -6 -39 -21 -26 -25 -28 -34 -28 -95 0 -47 3 -64 11 -57 7 6 29 -5 63
-32 28 -22 51 -44 51 -47 0 -4 -14 -63 -31 -133 -34 -141 -31 -139 -122 -139
-27 0 -46 -4 -43 -9 5 -8 -12 -20 -39 -27 -5 -1 -18 -5 -27 -9 -14 -5 -18 -2
-18 14 0 19 -6 21 -63 21 -35 0 -112 3 -171 7 l-106 6 36 26 c20 14 39 26 43
26 3 0 20 9 38 20 25 14 30 22 21 32 -8 10 -7 13 5 13 8 0 20 6 26 14 10 12 0
17 -56 30 -37 8 -98 20 -134 26 -65 11 -66 11 -92 63 -48 92 -102 372 -70 360
7 -3 13 0 13 6 0 6 -7 11 -14 11 -20 0 -18 79 3 105 15 18 15 19 -1 6 -16 -12
-18 -10 -18 24 0 45 31 79 64 69 12 -4 18 -3 13 2 -10 11 50 35 70 27 10 -4
14 -2 10 4 -3 5 19 17 51 27 31 10 62 23 69 28 7 5 22 7 34 3 12 -4 19 -3 16
2 -3 5 16 17 44 27 27 10 49 22 49 27 0 5 12 4 26 -2 15 -5 44 -9 65 -7 34 2
39 5 39 26 0 13 4 20 10 17 6 -3 10 -1 10 4 0 6 3 11 8 11 4 0 7 -21 8 -47z
m-4632 -160 c3 -64 4 -119 1 -121 -7 -7 -135 119 -135 133 0 19 85 101 106
102 20 1 21 -5 28 -114z m5124 12 c-2 -2 -14 5 -27 16 -15 12 -21 25 -17 36 6
14 10 11 27 -16 11 -18 19 -35 17 -36z m396 -140 c25 -82 44 -150 43 -152 -2
-2 -228 59 -262 71 -5 2 20 18 56 36 l66 33 23 90 c13 50 25 87 27 81 1 -5 23
-76 47 -159z m-6228 93 c25 -30 25 -33 8 -36 -10 -1 -46 6 -78 16 -52 16 -56
20 -33 24 14 3 24 1 21 -3 -3 -5 3 -9 12 -9 10 0 15 3 11 6 -6 6 13 33 25 34
3 0 19 -15 34 -32z m77 -30 c-4 -7 -8 -17 -8 -23 0 -11 -33 -75 -39 -75 -1 0
-3 16 -3 35 0 19 2 33 5 30 3 -2 13 7 24 20 20 26 35 34 21 13z m257 -14 c22
-9 40 -20 40 -24 0 -8 -59 -20 -100 -20 -20 0 -22 2 -10 10 13 9 13 10 0 10
-12 1 -11 3 3 11 9 6 15 14 12 20 -9 13 9 11 55 -7z m-599 -3 c6 10 9 2 8 -21
l0 -35 -14 25 c-8 14 -14 30 -14 35 0 6 3 4 6 -4 5 -11 7 -11 14 0z m2103 -86
c13 -19 13 -23 2 -19 -8 3 -17 1 -21 -5 -12 -21 -21 -11 -17 19 5 36 15 38 36
5z m-1780 -48 c4 5 6 4 5 -2 -5 -18 22 -85 34 -82 7 1 11 -8 9 -23 -3 -20 -1
-22 10 -12 12 9 19 4 41 -28 14 -22 21 -42 16 -45 -5 -4 -9 -12 -9 -18 0 -7 4
-6 10 3 8 13 11 12 24 -5 40 -54 40 -60 7 -121 -17 -32 -31 -68 -31 -81 0 -14
-6 -23 -16 -23 -11 0 -14 -6 -9 -21 5 -14 3 -19 -3 -15 -6 4 -10 -2 -9 -13 1
-19 1 -19 28 0 15 10 32 19 38 19 6 0 11 6 11 13 0 8 11 20 25 27 17 9 22 17
16 23 -7 7 -15 6 -25 -2 -15 -13 -36 -7 -36 9 0 5 7 7 15 4 8 -4 15 -1 15 5 0
29 37 4 57 -39 49 -108 78 -191 56 -165 -4 6 -17 10 -28 11 -11 0 -35 3 -52 7
-23 5 -36 2 -45 -9 -7 -8 -18 -20 -24 -27 -15 -16 -6 -44 29 -96 l30 -44 -137
5 c-75 2 -139 8 -143 11 -3 4 23 51 59 105 59 89 65 102 63 143 -8 119 -7 201
2 210 7 7 6 32 -4 77 -22 107 -34 146 -41 135 -4 -6 -14 -13 -22 -15 -8 -2
-21 -9 -28 -16 -8 -7 -18 -10 -23 -7 -5 4 -6 -2 -2 -12 3 -10 2 -15 -2 -10 -5
4 -17 -1 -29 -10 -13 -12 -5 9 24 62 68 125 63 120 76 90 5 -14 14 -22 18 -18z
m615 -51 c10 -12 8 -21 -10 -46 -21 -27 -24 -29 -31 -13 -3 10 -7 35 -7 56 -1
34 1 37 17 28 10 -5 24 -17 31 -25z m761 -20 c-71 -67 -224 -186 -230 -179
-13 13 1 65 16 59 8 -3 11 2 9 14 -2 10 4 21 13 25 14 5 14 7 2 15 -12 8 -9
10 10 10 19 0 21 3 11 9 -14 9 -3 14 129 50 50 13 56 13 40 -3z m-554 -81 l35
-45 -29 0 c-39 0 -77 46 -88 107 l-5 25 26 -20 c15 -12 42 -41 61 -67z m850
-22 c-7 -7 -36 16 -36 27 0 5 8 10 18 12 16 3 31 -27 18 -39z m-1094 -17 c4
-7 46 -11 103 -11 52 0 95 -2 95 -5 0 -3 -13 -48 -30 -101 -22 -72 -37 -102
-62 -125 -41 -39 -378 -189 -378 -169 0 6 173 244 216 297 12 15 24 33 26 40
3 7 17 12 32 10 17 -1 25 2 21 9 -4 5 -15 9 -25 7 -21 -3 -90 58 -90 79 0 10
10 9 43 -4 23 -9 45 -21 49 -27z m2460 -352 c95 -43 155 -64 169 -61 12 3 18
3 15 0 -3 -3 26 -28 65 -55 39 -27 74 -47 77 -43 4 4 0 10 -8 15 -8 5 -24 16
-35 24 -18 15 -17 15 18 1 27 -11 37 -12 37 -3 0 6 9 2 20 -10 11 -12 20 -24
20 -27 0 -3 16 -28 35 -56 19 -28 32 -56 29 -61 -4 -6 -12 -1 -19 11 -10 20
-13 21 -24 7 -8 -9 -10 -16 -5 -17 26 -2 -38 -18 -74 -18 -79 -2 -127 -20
-173 -67 -24 -24 -46 -44 -50 -44 -4 0 -10 19 -14 42 -9 50 -45 96 -41 52 0
-9 -5 -19 -11 -21 -15 -5 -18 23 -3 32 6 3 10 11 10 16 0 6 -5 7 -12 3 -6 -4
-8 -3 -4 4 3 6 0 16 -7 24 -14 13 -63 82 -145 203 -70 102 -68 99 -44 93 14
-4 19 -2 16 7 -3 7 -13 12 -22 10 -9 -1 -11 0 -4 2 7 3 9 9 6 14 -4 7 1 7 12
0 11 -6 85 -40 166 -77z m2015 70 c-3 -3 -12 -4 -19 -1 -8 3 -5 6 6 6 11 1 17
-2 13 -5z m-40 -10 c-3 -3 -12 -4 -19 -1 -8 3 -5 6 6 6 11 1 17 -2 13 -5z
m1440 -20 c25 -14 42 -28 39 -32 -4 -3 8 -20 25 -38 l32 -33 -38 -56 c-21 -30
-41 -55 -45 -55 -3 0 -18 27 -33 60 -16 33 -33 60 -40 60 -7 0 -21 -14 -32
-31 -17 -26 -24 -30 -55 -26 -19 3 -44 9 -55 13 -17 7 -18 6 -7 -8 10 -13 7
-21 -24 -52 -20 -20 -33 -29 -30 -20 4 11 2 15 -8 11 -18 -7 -23 7 -31 80 l-6
58 46 33 c25 18 50 30 55 27 6 -4 9 -1 8 6 -2 9 13 14 47 17 27 2 52 5 54 8
12 12 59 1 98 -22z m-5141 -22 c-15 -15 -15 -15 -4 10 7 15 15 23 17 17 2 -6
-4 -18 -13 -27z m3711 12 c-3 -3 -12 -4 -19 -1 -8 3 -5 6 6 6 11 1 17 -2 13
-5z m2193 -65 c-20 -16 -21 -18 -5 -13 15 4 17 3 6 -4 -15 -11 -34 -7 -64 14
-17 11 -14 13 25 27 53 18 75 5 38 -24z m-3907 10 c-8 -8 -13 -7 -18 2 -5 8
-4 10 3 5 7 -4 12 -2 12 5 0 7 3 9 7 6 4 -4 2 -12 -4 -18z m513 7 c3 -7 59
-37 125 -66 l120 -52 -48 -32 c-26 -18 -68 -46 -92 -64 -24 -18 -47 -32 -50
-32 -4 0 -13 17 -21 38 -12 35 -71 167 -91 205 -8 14 -5 17 21 17 17 0 33 -6
36 -14z m-546 -21 c0 -9 -9 -15 -22 -14 -17 1 -19 2 -5 6 9 2 17 9 17 14 0 5
2 9 5 9 3 0 5 -7 5 -15z m-4908 -40 c-3 -5 -7 -4 -10 3 -2 7 -8 12 -14 12 -6
0 -4 -8 5 -17 13 -16 14 -20 1 -37 -20 -27 -18 -38 6 -31 17 5 20 2 20 -28 0
-25 -14 -52 -52 -106 l-53 -72 -6 43 c-4 24 -14 71 -23 105 -15 59 -13 99 4
88 4 -3 7 3 6 13 0 9 5 16 13 14 17 -3 43 17 35 29 -3 5 4 9 16 9 14 0 19 4
14 12 -4 6 4 3 18 -8 14 -10 23 -23 20 -29z m4982 0 c-4 -8 -11 -15 -16 -15
-6 0 -5 6 2 15 7 8 14 15 16 15 2 0 1 -7 -2 -15z m1344 -127 c40 -28 42 -31
28 -47 -9 -10 -16 -21 -16 -25 0 -4 -28 -50 -61 -102 -44 -67 -64 -91 -70 -82
-5 7 -9 10 -9 5 0 -4 -13 -1 -30 8 -32 16 -32 38 1 56 21 11 24 59 10 157 -5
33 -4 52 3 52 5 0 3 6 -6 13 -8 6 -18 26 -21 44 l-6 31 67 -40 c37 -23 86 -54
110 -70z m-555 0 c21 -33 21 -39 2 -32 -9 4 -15 0 -15 -9 0 -8 -7 -18 -16 -21
-24 -9 -72 -7 -78 3 -6 10 28 96 46 118 11 13 22 2 61 -59z m3490 -40 c26 -73
37 -112 31 -105 -3 3 -15 -3 -26 -13 -28 -26 -122 -71 -144 -69 -4 0 -10 -5
-15 -12 -5 -9 -12 3 -20 34 -11 47 -29 72 -29 42 0 -9 -4 -13 -10 -10 -6 3
-10 -4 -10 -16 0 -12 -3 -20 -6 -16 -7 7 23 153 37 179 9 16 33 21 140 26 34
2 37 -1 52 -40z m-9043 -24 c0 -47 3 -57 20 -61 25 -7 25 -14 1 -53 l-18 -31
-63 68 c-81 88 -89 103 -56 103 14 0 27 4 30 9 4 5 -4 7 -16 5 -21 -4 -22 -4
-3 5 11 5 39 10 63 10 l42 1 0 -56z m7900 4 c12 -29 23 -63 23 -75 0 -12 3
-20 8 -17 5 3 9 0 9 -5 0 -6 -8 -11 -17 -12 -12 -1 -10 -4 7 -9 l25 -8 -25 -2
c-24 -2 -23 -3 5 -10 20 -5 -5 -8 -75 -9 -58 -1 -121 -4 -142 -7 -33 -6 -37
-9 -42 -48 -3 -22 -7 -46 -8 -53 -1 -7 -5 -10 -9 -7 -5 2 -6 12 -3 22 2 9 -1
7 -7 -5 -19 -36 -26 -27 -28 36 l-2 58 93 74 c51 41 106 86 122 102 16 15 32
27 36 27 4 0 18 -24 30 -52z m-1290 38 c0 -3 -4 -8 -10 -11 -5 -3 -10 -1 -10
4 0 6 5 11 10 11 6 0 10 -2 10 -4z m424 -24 c3 -5 -1 -9 -9 -9 -8 0 -12 4 -9
9 3 4 7 8 9 8 2 0 6 -4 9 -8z m1026 -59 c0 -69 -14 -84 -24 -25 -4 20 -9 48
-12 62 -4 21 -1 26 16 26 18 0 20 -7 20 -63z m-1480 42 c0 -8 -4 -15 -10 -15
-5 0 -7 7 -4 15 4 8 8 15 10 15 2 0 4 -7 4 -15z m-199 -32 c1 -16 2 -16 6 1 4
16 10 14 39 -19 19 -21 34 -42 34 -47 0 -4 6 -8 14 -8 8 0 16 -5 18 -12 3 -8
12 -5 28 10 13 12 27 19 32 16 5 -3 7 6 4 20 -3 14 -1 25 4 23 5 -1 15 7 24
18 14 18 14 17 6 -20 -4 -22 -11 -58 -14 -80 -9 -70 -18 -105 -29 -112 -5 -3
-7 -2 -4 4 4 6 -44 48 -105 94 -100 75 -109 84 -88 89 17 4 21 8 12 14 -17 10
-15 26 3 26 8 0 16 -8 16 -17z m519 -28 l13 -45 28 33 c16 17 29 28 29 23 0
-5 10 -1 22 10 22 19 22 19 -1 -21 l-23 -40 25 30 c15 17 26 33 27 36 0 4 6 9
14 12 8 3 -14 -35 -50 -85 -35 -51 -64 -94 -64 -98 0 -3 50 -22 110 -42 70
-23 110 -32 110 -25 0 7 5 5 10 -3 9 -14 14 -7 11 13 -3 17 15 -2 32 -35 17
-33 17 -36 -11 -156 l-29 -123 52 -114 c29 -63 51 -115 49 -115 -2 0 8 -18 22
-40 15 -22 24 -43 20 -47 -3 -3 -6 0 -6 8 0 10 -2 11 -8 2 -4 -6 -56 -17 -116
-24 -59 -6 -112 -17 -117 -23 -65 -77 -155 -222 -201 -324 -30 -67 -58 -119
-63 -115 -4 5 -5 2 -1 -4 4 -7 0 -23 -8 -35 -9 -12 -16 -17 -16 -10 0 6 -7 12
-15 12 -10 0 -12 -6 -8 -17 6 -16 5 -17 -12 -3 -10 8 -16 10 -12 3 4 -6 3 -14
-2 -18 -6 -3 -7 -13 -4 -22 5 -13 0 -11 -18 6 -42 40 -55 43 -69 16 -7 -13
-21 -25 -30 -28 -10 -3 -20 -15 -22 -28 -2 -13 -9 -23 -15 -22 -6 1 -9 -6 -6
-16 4 -15 -4 -19 -53 -25 -31 -3 -59 -5 -61 -2 -3 2 32 61 77 130 65 101 90
130 127 151 38 23 89 65 174 147 9 9 19 16 21 15 8 -4 -59 59 -121 113 l-64
55 76 74 c42 41 74 78 70 84 -3 6 -1 7 5 3 11 -7 52 13 52 25 0 3 -30 20 -67
38 -101 47 -155 78 -146 84 7 4 218 -43 261 -58 10 -4 8 -12 -7 -34 -21 -30
-30 -124 -13 -135 4 -3 28 0 51 5 36 8 47 7 62 -7 25 -22 24 -17 -5 46 l-24
52 76 52 c67 44 79 57 91 96 10 32 11 45 3 48 -7 2 -10 8 -7 12 3 5 1 11 -4
15 -6 3 -8 -3 -6 -15 2 -11 0 -20 -6 -20 -5 0 -9 6 -9 13 0 6 -5 4 -11 -6 -5
-9 -16 -17 -24 -17 -7 0 -16 -6 -19 -12 -5 -10 -7 -10 -12 0 -3 6 -18 12 -32
12 -26 -1 -26 -1 -8 -15 11 -8 15 -15 9 -15 -5 0 -23 -11 -39 -25 -52 -45 -32
-64 -291 276 -56 75 -103 139 -103 143 0 3 11 6 25 6 14 0 25 5 25 10 0 6 6
10 14 10 8 0 18 9 21 20 3 11 12 20 19 20 14 0 92 76 108 104 5 8 15 13 23 9
9 -3 22 0 30 7 8 6 19 9 25 5 6 -4 10 -3 9 2 -8 43 18 26 31 -22z m1682 38
c-12 -2 -20 -9 -17 -14 4 -5 0 -9 -7 -9 -7 0 -23 -15 -36 -33 -44 -62 -72
-108 -72 -117 0 -6 -9 -10 -20 -10 -13 0 -20 -7 -20 -20 0 -11 -7 -20 -16 -20
-10 0 -14 -6 -10 -17 2 -10 7 -37 11 -60 4 -23 12 -46 18 -52 7 -5 75 -24 152
-41 77 -18 143 -35 147 -39 4 -4 -6 -43 -23 -86 l-30 -80 -182 -44 c-176 -43
-201 -51 -203 -71 -1 -6 -3 -11 -4 -12 -1 -2 -3 -16 -4 -33 -2 -43 -28 -44
-48 -2 -13 27 -14 37 -5 46 9 9 8 11 -5 6 -10 -4 -18 -3 -18 3 0 11 18 11 38
-2 7 -4 14 -6 16 -5 13 21 76 168 76 179 0 10 -3 11 -8 4 -4 -6 -17 -14 -29
-18 -13 -4 -23 -12 -23 -17 0 -5 -6 -9 -14 -9 -14 0 -18 21 -32 163 -4 42 -2
77 4 90 6 12 30 77 53 144 41 121 42 123 78 133 97 26 175 41 188 36 8 -3 11
-1 8 4 -4 6 7 9 27 9 24 -1 27 -3 10 -6z m-6837 -104 c-4 -5 -14 -9 -23 -9
-19 0 -67 -34 -67 -47 -1 -21 -27 -52 -39 -47 -8 3 -16 -4 -19 -17 -6 -22 15
-62 47 -89 9 -7 13 -16 10 -22 -3 -5 -12 -4 -20 3 -11 9 -14 7 -14 -11 0 -20
-2 -21 -17 -9 -15 12 -16 12 -11 -8 4 -16 2 -20 -8 -16 -8 3 -14 -1 -14 -10 0
-8 -16 -29 -36 -46 -22 -19 -34 -38 -30 -46 3 -8 2 -15 -3 -15 -4 0 -13 17
-19 38 -10 31 -8 57 11 156 l22 119 66 24 c45 16 71 32 79 49 10 18 16 21 22
12 5 -10 8 -8 8 4 0 10 8 27 18 38 17 21 17 21 30 -10 7 -17 10 -35 7 -41z
m-676 34 c-21 -13 -22 -14 -3 -10 17 4 20 0 19 -24 -1 -16 2 -29 7 -29 5 0 6
-4 3 -10 -4 -6 6 -10 22 -10 22 0 25 2 13 10 -11 7 -6 8 18 4 22 -5 32 -3 32
6 0 10 3 10 15 0 9 -7 14 -19 11 -27 -3 -8 -2 -12 3 -9 8 6 35 -43 27 -51 -2
-2 -27 6 -56 18 -51 22 -51 23 -28 36 21 12 20 13 -17 8 -37 -5 -44 -2 -91 43
-37 34 -47 48 -34 48 10 0 17 -4 14 -7 -12 -19 13 -14 31 6 10 13 23 21 29 18
5 -3 -2 -12 -15 -20z m3361 -10 c0 -1 -17 -12 -37 -24 -21 -13 -41 -28 -45
-33 -5 -8 -8 -7 -8 0 0 7 11 19 25 28 14 9 24 20 21 24 -2 4 7 7 20 7 13 0 24
-1 24 -2z m3200 1 c0 -3 -7 -12 -15 -20 -16 -17 -18 -14 -9 10 6 15 24 23 24
10z m-5740 -34 c24 -8 24 -8 -5 -8 -16 0 -43 4 -60 8 l-30 8 35 0 c19 0 46 -4
60 -8z m-540 -122 c0 -19 -2 -20 -10 -8 -7 11 -10 11 -10 2 0 -7 -7 -12 -16
-10 -10 2 -19 -4 -21 -12 -4 -13 -3 -13 6 0 7 9 11 10 11 3 0 -21 -21 -26 -35
-7 -21 31 -18 39 17 45 55 11 58 10 58 -13z m4979 -61 c1 -7 11 -20 38 -51 7
-8 10 -16 7 -19 -7 -6 -87 33 -92 45 -2 4 -11 8 -20 8 -9 1 -2 7 15 15 25 10
31 18 27 32 -6 15 -4 15 9 -2 8 -11 15 -23 16 -28z m2799 -159 c-27 -62 -55
-125 -60 -140 -6 -16 -15 -25 -21 -21 -5 3 -7 1 -4 -5 4 -5 4 -17 1 -26 -9
-23 -31 7 -88 122 -42 83 -45 93 -29 99 10 4 70 24 133 44 63 21 116 38 117
38 1 1 -21 -50 -49 -111z m-290 44 l62 -18 -54 -47 -55 -47 -15 28 c-8 16 -22
34 -30 41 -23 19 -20 40 7 51 12 5 22 9 22 9 0 0 28 -8 63 -17z m-4232 -37 c0
-15 -4 -21 -9 -16 -5 5 -7 17 -4 25 9 23 13 20 13 -9z m166 -11 c76 -14 138
-29 138 -33 0 -3 -13 -15 -29 -26 -16 -11 -68 -50 -115 -87 -58 -46 -91 -66
-103 -62 -14 4 -15 3 -5 -4 13 -8 -18 -39 -94 -94 -8 -6 -11 2 -11 26 1 22 5
32 13 29 7 -2 18 4 25 14 8 10 31 29 51 43 37 25 56 50 38 50 -6 0 -10 -4 -10
-10 0 -5 -10 -15 -22 -21 -21 -11 -22 -11 -9 4 9 11 10 17 2 17 -6 0 -11 5
-11 10 0 6 9 10 19 10 20 0 37 17 28 26 -3 3 -23 5 -46 6 -23 0 -44 4 -47 9
-3 5 -1 9 4 9 6 0 13 16 16 35 4 19 14 39 24 45 16 11 16 11 0 6 -12 -3 -15
-1 -11 10 7 18 -7 19 155 -12z m-3298 -9 c3 -8 1 -15 -4 -15 -6 0 -10 7 -10
15 0 8 2 15 4 15 2 0 6 -7 10 -15z m6 -29 c0 -2 -7 -7 -16 -10 -8 -3 -12 -2
-9 4 6 10 25 14 25 6z m4985 -66 c-7 -11 -95 -34 -102 -26 -4 3 11 22 33 41
l39 35 17 -21 c10 -12 16 -24 13 -29z m-5848 -4 c3 -19 -1 -23 -22 -23 -31 0
-33 17 -2 18 20 1 20 2 2 6 -31 8 -40 21 -9 15 21 -4 25 -2 19 9 -5 8 -4 11 0
6 5 -4 10 -18 12 -31z m8160 7 c-3 -10 -11 -42 -17 -70 -7 -29 -15 -53 -19
-53 -7 0 -76 73 -74 79 3 9 89 61 101 61 8 0 11 -7 9 -17z m593 -80 c0 -25 -2
-44 -5 -41 -9 9 -13 88 -4 88 5 0 9 -21 9 -47z m-3200 -32 c0 -18 -93 -187
-112 -203 -14 -13 -36 -18 -72 -17 -28 0 -45 3 -38 6 6 2 12 20 12 38 0 19 5
37 10 40 6 4 8 11 5 16 -4 5 -1 9 4 9 6 0 11 5 11 11 0 6 9 23 20 39 11 15 17
30 14 33 -5 5 36 20 81 30 35 8 65 7 65 -2z m301 -158 c1 -71 1 -131 0 -135 0
-5 4 -8 9 -8 7 0 6 -5 -2 -13 -9 -11 -21 -11 -52 -4 -36 9 -38 11 -17 19 26 9
23 16 -36 75 -18 18 -33 40 -33 48 0 9 -6 18 -14 21 -8 3 -17 12 -20 19 -3 9
0 12 10 8 7 -3 14 -9 14 -14 0 -20 18 -7 24 16 5 18 20 32 51 45 26 11 45 26
45 35 0 8 5 15 10 15 6 0 10 -50 11 -127z m-5525 82 c1 -8 -2 -15 -6 -15 -5 0
-8 9 -7 20 1 21 10 18 13 -5z m3594 -19 c0 -23 -16 -27 -17 -5 -1 10 2 19 8
19 5 0 9 -6 9 -14z m4837 -38 c-3 -8 -6 -5 -6 6 -1 11 2 17 5 13 3 -3 4 -12 1
-19z m-8249 -93 c-3 -3 -9 2 -12 12 -6 14 -5 15 5 6 7 -7 10 -15 7 -18z m8259
-37 c-3 -8 -6 -5 -6 6 -1 11 2 17 5 13 3 -3 4 -12 1 -19z m-3050 -24 c-3 -3
-12 -4 -19 -1 -8 3 -5 6 6 6 11 1 17 -2 13 -5z m3050 -31 c-3 -10 -5 -4 -5 12
0 17 2 24 5 18 2 -7 2 -21 0 -30z m-1170 -20 c-9 -2 -15 -9 -12 -14 3 -5 -1
-6 -9 -3 -25 9 -19 20 12 21 15 0 19 -1 9 -4z m30 -28 c0 -8 -4 -12 -9 -9 -5
3 -6 10 -3 15 9 13 12 11 12 -6z m-1088 -152 c17 -46 26 -83 21 -83 -6 0 -46
18 -90 40 -58 29 -78 44 -74 55 4 8 10 15 15 15 13 0 89 56 85 62 -1 3 1 3 5
-1 4 -3 21 -43 38 -88z m-6339 -5 c0 -4 -13 -2 -30 3 -35 13 -36 17 -12 35 14
11 19 9 29 -9 7 -12 12 -25 13 -29z m196 13 c-4 -6 -14 -7 -23 -4 -15 6 -14 7
3 13 22 9 29 6 20 -9z m7546 -42 c-13 -5 -21 -12 -18 -17 2 -4 -5 -9 -17 -9
-17 -2 -19 0 -7 7 8 5 11 10 7 10 -22 0 5 16 30 17 27 2 27 1 5 -8z m-4194
-51 c23 -16 41 -32 38 -36 -2 -4 -39 -5 -82 -4 -63 3 -76 6 -64 15 9 7 14 20
12 30 -2 10 3 17 12 17 9 0 16 5 16 11 0 11 6 8 68 -33z m1018 -29 l42 -42
-28 -23 c-15 -13 -33 -24 -39 -24 -6 0 -14 -13 -17 -30 -4 -16 -10 -27 -14
-25 -14 9 -40 -6 -40 -23 0 -8 -2 -13 -5 -10 -7 7 45 218 53 218 4 0 25 -19
48 -41z m-1516 -89 c0 -5 -7 -7 -15 -4 -8 4 -15 8 -15 10 0 2 7 4 15 4 8 0 15
-4 15 -10z m2525 -81 c11 -16 1 -19 -13 -3 -7 8 -8 14 -3 14 5 0 13 -5 16 -11z
m-2555 -59 c-8 -5 -24 -9 -35 -9 -16 1 -16 2 5 9 35 11 48 11 30 0z m-3275
-10 c3 -5 -1 -10 -10 -10 -9 0 -13 5 -10 10 3 6 8 10 10 10 2 0 7 -4 10 -10z"/>
<path d="M2365 7510 c-3 -6 1 -7 9 -4 18 7 21 14 7 14 -6 0 -13 -4 -16 -10z"/>
<path d="M8103 7228 c1 -7 -4 -12 -11 -10 -8 1 -11 -2 -7 -8 5 -8 11 -8 21 1
7 6 11 15 8 20 -8 13 -14 11 -11 -3z"/>
<path d="M6740 6992 c0 -5 7 -15 15 -22 8 -7 15 -8 15 -2 0 5 -7 15 -15 22 -8
7 -15 8 -15 2z"/>
<path d="M6793 6923 c-17 -6 -17 -41 0 -57 11 -11 13 -6 12 25 0 22 0 39 0 38
0 0 -6 -3 -12 -6z"/>
<path d="M6820 6871 c0 -5 7 -11 14 -14 10 -4 13 -1 9 9 -6 15 -23 19 -23 5z"/>
<path d="M6880 6793 c0 -20 26 -63 38 -63 10 0 10 4 0 22 -17 29 -38 52 -38
41z"/>
<path d="M6773 6730 c0 -25 2 -35 4 -22 2 12 2 32 0 45 -2 12 -4 2 -4 -23z"/>
<path d="M6820 6710 c0 -16 7 -20 30 -20 23 0 30 4 30 20 0 16 -7 20 -30 20
-23 0 -30 -4 -30 -20z"/>
<path d="M6808 6673 c7 -3 16 -2 19 1 4 3 -2 6 -13 5 -11 0 -14 -3 -6 -6z"/>
<path d="M2754 6922 c10 -16 -15 -27 -26 -11 -8 11 -8 10 -4 -4 3 -10 6 -21 6
-23 0 -11 17 -2 27 16 9 14 10 21 1 26 -6 4 -8 3 -4 -4z"/>
<path d="M2708 6865 c-5 -25 -4 -25 10 -11 12 11 13 19 5 27 -7 7 -12 3 -15
-16z"/>
<path d="M1966 6793 c-6 -14 -5 -15 5 -6 7 7 10 15 7 18 -3 3 -9 -2 -12 -12z"/>
<path d="M360 6320 c0 -5 5 -10 11 -10 5 0 7 5 4 10 -3 6 -8 10 -11 10 -2 0
-4 -4 -4 -10z"/>
<path d="M1528 5585 c-38 -12 -68 -20 -68 -17 0 3 -5 1 -10 -4 -16 -16 8 -75
28 -72 18 3 60 36 105 82 15 16 30 26 34 22 3 -3 0 -6 -7 -6 -7 0 -11 -2 -8
-5 8 -9 38 6 32 16 -8 14 -33 10 -106 -16z"/>
<path d="M296 5915 c-3 -8 -1 -15 4 -15 6 0 10 7 10 15 0 8 -2 15 -4 15 -2 0
-6 -7 -10 -15z"/>
<path d="M6830 5795 c0 -10 29 -24 34 -17 3 6 -3 12 -14 15 -11 3 -20 4 -20 2z"/>
<path d="M6950 5550 c0 -5 5 -10 10 -10 6 0 10 5 10 10 0 6 -4 10 -10 10 -5 0
-10 -4 -10 -10z"/>
<path d="M5814 5595 c-10 -8 -14 -15 -8 -15 6 0 17 7 24 15 16 19 9 19 -16 0z"/>
<path d="M5900 5590 c0 -5 5 -10 10 -10 6 0 10 5 10 10 0 6 -4 10 -10 10 -5 0
-10 -4 -10 -10z"/>
<path d="M6935 5391 c-6 -5 -19 -11 -30 -14 -18 -4 -17 -5 3 -6 13 0 30 6 38
14 16 16 5 22 -11 6z"/>
<path d="M6558 5353 c6 -2 18 -2 25 0 6 3 1 5 -13 5 -14 0 -19 -2 -12 -5z"/>
<path d="M6487 5329 c7 -7 15 -10 18 -7 3 3 -2 9 -12 12 -14 6 -15 5 -6 -5z"/>
<path d="M6751 5214 c0 -11 3 -14 6 -6 3 7 2 16 -1 19 -3 4 -6 -2 -5 -13z"/>
<path d="M1250 5270 c0 -5 5 -10 11 -10 5 0 7 5 4 10 -3 6 -8 10 -11 10 -2 0
-4 -4 -4 -10z"/>
<path d="M3901 4344 c0 -11 3 -14 6 -6 3 7 2 16 -1 19 -3 4 -6 -2 -5 -13z"/>
<path d="M4092 4320 c0 -14 2 -19 5 -12 2 6 2 18 0 25 -3 6 -5 1 -5 -13z"/>
<path d="M6942 2574 c-7 -8 -8 -14 -3 -14 10 0 25 19 20 25 -2 1 -10 -3 -17
-11z"/>
<path d="M7606 2542 c2 -2 -1 -13 -7 -24 -9 -16 -13 -17 -26 -6 -13 10 -12 6
3 -17 18 -29 18 -30 0 -15 -19 15 -19 14 -3 -17 26 -49 34 -47 46 9 9 42 9 54
-2 64 -8 6 -12 9 -11 6z"/>
<path d="M6930 2515 c0 -8 7 -15 16 -15 14 0 14 3 4 15 -7 8 -14 15 -16 15 -2
0 -4 -7 -4 -15z"/>
<path d="M6965 2481 c-3 -5 -2 -12 3 -15 5 -3 9 1 9 9 0 17 -3 19 -12 6z"/>
<path d="M7331 2483 c0 -7 -8 -13 -16 -13 -8 0 -15 -8 -15 -17 0 -15 -2 -16
-10 -3 -5 8 -11 12 -13 10 -5 -7 -62 -93 -70 -106 -6 -10 77 -74 95 -74 9 0
40 176 35 196 -3 11 -5 13 -6 7z"/>
<path d="M7088 2260 c-18 -16 -28 -30 -23 -30 6 0 23 14 38 30 37 39 27 39
-15 0z"/>
<path d="M7613 2088 c-35 -10 -63 -22 -63 -27 0 -4 12 -18 27 -32 14 -13 23
-18 19 -11 -4 7 -1 12 8 12 8 0 16 3 18 8 2 4 23 22 47 39 50 36 38 39 -56 11z"/>
<path d="M2299 2317 c6 -8 7 -18 3 -22 -4 -5 -2 -5 5 -1 14 8 6 36 -9 36 -7 0
-6 -5 1 -13z"/>
<path d="M6760 1790 c0 -5 5 -10 11 -10 5 0 7 5 4 10 -3 6 -8 10 -11 10 -2 0
-4 -4 -4 -10z"/>
<path d="M6806 1758 c3 -5 10 -6 15 -3 13 9 11 12 -6 12 -8 0 -12 -4 -9 -9z"/>
<path d="M7766 1583 c-6 -14 -5 -15 5 -6 7 7 10 15 7 18 -3 3 -9 -2 -12 -12z"/>
<path d="M7760 1023 c0 -15 -2 -16 -11 -3 -9 13 -10 13 -6 -2 3 -9 1 -19 -6
-22 -8 -3 -8 -5 -1 -5 17 -1 47 36 35 44 -6 3 -11 -2 -11 -12z"/>
<path d="M1860 1532 c0 -12 19 -26 26 -19 2 2 -2 10 -11 17 -9 8 -15 8 -15 2z"/>
<path d="M5512 1073 c11 -3 15 -10 11 -21 -6 -14 -5 -15 9 -2 17 16 6 31 -22
29 -11 -1 -11 -2 2 -6z"/>
<path d="M5520 1015 c-7 -8 -8 -15 -2 -15 5 0 15 7 22 15 7 8 8 15 2 15 -5 0
-15 -7 -22 -15z"/>
<path d="M5390 910 c-13 -11 -20 -20 -16 -20 4 0 19 9 33 20 14 11 21 20 16
20 -6 0 -20 -9 -33 -20z"/>
<path d="M7200 859 c0 -5 5 -7 10 -4 6 3 10 8 10 11 0 2 -4 4 -10 4 -5 0 -10
-5 -10 -11z"/>
<path d="M7238 653 c7 -3 16 -2 19 1 4 3 -2 6 -13 5 -11 0 -14 -3 -6 -6z"/>
<path d="M3450 9078 c-5 -13 -28 -68 -50 -123 -23 -55 -44 -106 -47 -112 -3
-7 0 -13 6 -13 6 0 11 10 11 23 0 18 2 19 10 7 8 -12 11 -13 19 -1 7 11 10 11
17 0 6 -10 11 -5 20 16 7 17 13 24 14 17 0 -23 40 7 41 31 l1 22 6 -22 c4 -13
15 -32 26 -44 17 -20 19 -21 28 -5 5 9 13 14 19 11 5 -4 9 -3 9 2 0 18 -107
213 -116 213 -3 0 -9 -10 -14 -22z"/>
<path d="M3861 8904 c0 -11 3 -14 6 -6 3 7 2 16 -1 19 -3 4 -6 -2 -5 -13z"/>
<path d="M8742 8851 c-50 -12 -70 -24 -92 -51 -15 -19 -25 -41 -22 -49 3 -8 1
-12 -5 -8 -5 4 -15 -6 -22 -21 -11 -25 -10 -26 4 -8 11 14 15 16 15 5 0 -12 2
-12 9 0 7 11 9 11 14 0 3 -8 6 -2 6 12 1 22 5 25 29 21 22 -3 33 3 51 27 13
17 27 28 32 25 5 -3 6 3 2 12 -5 14 -3 16 11 11 11 -5 15 -3 10 5 -5 7 -2 9 8
6 8 -4 21 -2 29 3 11 7 11 9 1 9 -7 0 -10 5 -7 10 8 12 5 12 -73 -9z m-28 -46
c3 -8 1 -15 -4 -15 -6 0 -10 7 -10 15 0 8 2 15 4 15 2 0 6 -7 10 -15z"/>
<path d="M8580 8679 c0 -5 5 -7 10 -4 6 3 10 8 10 11 0 2 -4 4 -10 4 -5 0 -10
-5 -10 -11z"/>
<path d="M1650 8621 c0 -4 -11 -26 -25 -47 l-25 -39 30 35 c27 30 39 60 25 60
-3 0 -5 -4 -5 -9z"/>
<path d="M1665 8589 c-4 -6 -5 -12 -2 -15 2 -3 7 2 10 11 7 17 1 20 -8 4z"/>
<path d="M1636 8543 c-6 -14 -5 -15 5 -6 7 7 10 15 7 18 -3 3 -9 -2 -12 -12z"/>
<path d="M1667 8547 c-3 -8 1 -14 8 -14 7 0 11 6 8 14 -3 7 -6 13 -8 13 -2 0
-5 -6 -8 -13z"/>
<path d="M1585 8499 c-4 -6 -5 -12 -2 -15 2 -3 7 2 10 11 7 17 1 20 -8 4z"/>
<path d="M5772 7823 c56 -127 59 -132 84 -121 15 7 20 14 13 18 -6 4 -10 11
-9 15 2 8 -76 95 -86 95 -3 0 -4 -3 -2 -7z"/>
<path d="M324 7361 c4 -40 11 -83 16 -95 8 -19 9 -18 10 9 0 23 3 27 10 15 8
-13 10 -12 10 3 0 9 5 17 10 17 6 0 10 5 10 11 0 6 7 18 16 26 13 13 17 14 24
3 6 -10 13 -8 31 9 l24 22 -30 -6 c-18 -4 -25 -3 -18 2 9 6 -4 15 -40 28 -28
10 -58 20 -66 23 -11 4 -13 -7 -7 -67z"/>
<path d="M3040 7095 c7 -19 6 -23 -5 -19 -8 3 -22 -1 -30 -10 -9 -9 -23 -16
-31 -16 -8 0 -14 -4 -14 -9 0 -4 28 -2 63 7 34 8 76 18 92 21 l30 7 -42 22
c-58 30 -75 29 -63 -3z"/>
<path d="M8210 6575 c0 -8 2 -15 4 -15 2 0 6 7 10 15 3 8 1 15 -4 15 -6 0 -10
-7 -10 -15z"/>
<path d="M8675 6260 c-3 -5 -1 -10 4 -10 6 0 11 5 11 10 0 6 -2 10 -4 10 -3 0
-8 -4 -11 -10z"/>
<path d="M5343 6110 c-1 -22 2 -40 6 -40 15 0 20 54 7 68 -9 9 -12 4 -13 -28z"/>
<path d="M2801 5978 c-53 -10 -81 -26 -81 -47 0 -14 17 -14 22 -1 2 6 14 4 31
-5 28 -14 62 -11 51 6 -3 5 5 9 18 9 l23 1 -25 15 c-25 15 -25 15 -1 8 15 -4
21 -2 17 4 -3 6 2 13 11 15 32 8 -10 5 -66 -5z"/>
<path d="M8028 5952 c26 -12 35 -13 45 -3 9 10 8 11 -7 5 -13 -5 -17 -4 -12 4
5 8 -3 12 -26 11 l-33 0 33 -17z"/>
<path d="M8220 5917 l-76 -31 -16 -120 c-9 -67 -15 -122 -14 -124 2 -1 23 30
48 70 24 40 68 110 96 156 29 45 49 82 45 81 -5 -1 -42 -15 -83 -32z"/>
<path d="M4854 5911 c-138 -16 -143 -17 -262 -76 -67 -32 -122 -63 -122 -67 0
-8 178 -128 190 -128 3 0 11 14 17 30 8 21 16 28 27 24 11 -4 16 -1 16 11 0 9
15 32 33 52 l34 35 43 -31 c24 -17 48 -31 55 -31 7 0 43 31 81 68 38 38 77 72
88 75 10 4 16 13 13 21 -3 7 -1 18 4 23 15 15 -52 13 -217 -6z"/>
<path d="M5090 5899 c0 -5 5 -7 10 -4 6 3 10 8 10 11 0 2 -4 4 -10 4 -5 0 -10
-5 -10 -11z"/>
<path d="M2241 5758 c-17 -27 -25 -72 -12 -63 10 5 33 76 28 81 -2 2 -9 -6
-16 -18z"/>
<path d="M2638 5736 c-27 -22 -28 -27 -28 -117 l0 -94 55 60 c30 33 55 63 55
68 0 4 7 7 16 7 8 0 12 5 9 10 -3 6 0 10 7 11 30 1 -31 18 -69 18 -47 1 -54 9
-23 29 20 12 27 32 13 32 -5 0 -20 -11 -35 -24z"/>
<path d="M2960 5648 c0 -48 15 -71 31 -47 10 16 3 44 -17 74 -13 18 -14 15
-14 -27z"/>
<path d="M4656 5584 c-10 -75 -8 -106 7 -98 8 5 7 2 -2 -10 -13 -15 -10 -21
25 -58 21 -23 45 -48 52 -56 7 -8 12 -9 12 -2 0 6 5 8 11 4 8 -4 9 1 5 17 -3
13 -3 18 0 12 8 -17 24 -16 24 1 0 7 7 19 15 26 8 7 12 16 9 21 -3 5 1 9 8 10
7 0 2 5 -12 10 -14 6 -51 8 -82 5 -47 -4 -56 -2 -51 10 4 11 8 12 19 3 8 -7
17 -9 21 -5 3 3 1 6 -7 6 -9 0 -11 12 -6 50 4 28 9 56 12 64 3 7 -3 16 -13 20
-10 3 -23 8 -29 11 -7 4 -14 -12 -18 -41z"/>
<path d="M3638 5575 c-21 -19 -47 -35 -58 -35 -13 0 -22 -9 -26 -26 -5 -20 0
-32 25 -58 32 -33 40 -61 20 -68 -6 -2 -11 -16 -11 -31 0 -16 -11 -37 -24 -50
-13 -12 -24 -27 -24 -34 0 -13 35 -81 50 -97 13 -13 101 170 96 198 -4 20 -1
22 22 19 24 -3 24 -2 7 6 -14 7 -16 10 -5 10 9 1 16 11 18 25 1 20 -5 25 -43
36 -25 7 -45 18 -45 24 1 18 26 46 35 38 4 -4 4 4 0 18 -7 21 -6 23 7 12 13
-10 16 -9 21 10 13 49 -15 50 -65 3z"/>
<path d="M4720 5579 c0 -5 5 -7 10 -4 6 3 10 8 10 11 0 2 -4 4 -10 4 -5 0 -10
-5 -10 -11z"/>
<path d="M7776 5477 c3 -10 9 -15 12 -12 3 3 0 11 -7 18 -10 9 -11 8 -5 -6z"/>
<path d="M3695 5370 c3 -5 8 -10 11 -10 2 0 4 5 4 10 0 6 -5 10 -11 10 -5 0
-7 -4 -4 -10z"/>
<path d="M3748 5284 c11 -5 10 -8 -1 -18 -17 -14 -52 -94 -45 -102 3 -3 79 -7
169 -10 l164 -5 -120 65 c-66 35 -133 67 -150 70 -16 3 -24 3 -17 0z"/>
<path d="M2001 5224 c0 -11 3 -14 6 -6 3 7 2 16 -1 19 -3 4 -6 -2 -5 -13z"/>
<path d="M12 5155 c0 -16 2 -22 5 -12 2 9 2 23 0 30 -3 6 -5 -1 -5 -18z"/>
<path d="M12 5065 c0 -16 2 -22 5 -12 2 9 2 23 0 30 -3 6 -5 -1 -5 -18z"/>
<path d="M0 4370 c0 -337 2 -611 5 -609 6 7 8 1210 1 1217 -3 3 -6 -271 -6
-608z"/>
<path d="M141 4373 c8 -180 6 -168 22 -154 10 8 17 7 25 -1 9 -9 15 -8 25 7 8
10 19 15 25 11 7 -4 12 -4 12 -1 0 13 -104 285 -109 285 -4 0 -3 -66 0 -147z"/>
<path d="M8500 4510 c0 -5 7 -10 16 -10 8 0 12 5 9 10 -3 6 -10 10 -16 10 -5
0 -9 -4 -9 -10z"/>
<path d="M8491 4464 c0 -11 3 -14 6 -6 3 7 2 16 -1 19 -3 4 -6 -2 -5 -13z"/>
<path d="M1469 4435 c-13 -7 -23 -16 -21 -19 6 -15 0 -17 -15 -5 -9 8 -14 9
-10 3 3 -6 -5 -16 -18 -22 -14 -7 -25 -16 -25 -22 0 -5 -10 -10 -22 -10 -19 0
-20 -2 -8 -10 8 -5 12 -10 8 -10 -4 0 15 -33 41 -73 l49 -73 120 -32 c66 -18
122 -32 125 -32 7 0 -152 258 -181 295 -16 20 -21 21 -43 10z m-59 -59 c0 -3
-4 -8 -10 -11 -5 -3 -10 -1 -10 4 0 6 5 11 10 11 6 0 10 -2 10 -4z"/>
<path d="M2090 4370 c-7 -10 -17 -17 -22 -14 -4 3 -5 -1 -3 -8 3 -8 -6 -29
-20 -48 l-26 -35 28 -6 c34 -8 113 -11 113 -4 0 9 -43 120 -49 127 -4 4 -13
-1 -21 -12z"/>
<path d="M1121 4283 c-1 -7 -8 -13 -16 -13 -8 0 -51 -13 -97 -28 l-83 -28
-168 10 c-92 5 -169 7 -170 5 -2 -2 0 -73 4 -158 5 -125 9 -156 22 -166 12 -8
15 -22 11 -46 -3 -21 6 -68 24 -128 l29 -94 103 2 c99 2 107 4 163 37 32 19
62 32 66 29 5 -2 14 -18 21 -35 12 -29 13 -30 30 -13 16 17 16 19 -3 36 -11 9
-25 17 -31 17 -17 0 5 16 79 55 39 21 77 43 85 50 26 21 112 65 126 65 21 0
17 -18 -5 -25 -12 -4 -18 -12 -14 -21 3 -7 0 -14 -6 -14 -6 0 -11 5 -11 10 0
6 -4 10 -10 10 -16 0 -11 -14 10 -27 15 -10 22 -10 35 3 15 15 17 15 31 -2 13
-17 14 -14 12 32 -1 40 -5 51 -17 49 -9 -1 -10 0 -3 2 6 3 12 9 12 14 0 6 5 7
10 4 6 -3 10 -2 10 3 0 5 -25 33 -55 61 -30 29 -55 54 -55 57 0 3 -7 13 -16
21 -13 13 -13 17 -2 24 7 5 9 9 3 9 -5 0 -4 4 3 9 10 6 7 10 -13 15 -14 4 -31
4 -37 0 -5 -4 -15 0 -20 7 -8 12 -9 11 -5 -1 2 -8 15 -16 30 -18 22 -3 24 -6
14 -17 -9 -10 -15 -10 -26 -2 -11 10 -13 7 -7 -13 6 -22 6 -23 -7 -8 -12 15
-14 12 -25 -28 -7 -24 -16 -44 -21 -44 -4 0 0 25 10 57 11 31 17 59 14 62 -3
2 -54 -19 -113 -49 -59 -30 -110 -55 -114 -57 -4 -2 -5 3 -2 11 3 9 9 14 12
13 4 -1 8 1 10 5 1 4 25 30 52 57 28 28 50 57 50 65 0 8 11 23 25 34 14 11 25
27 25 36 0 9 5 16 11 16 5 0 8 4 5 9 -4 5 -1 11 5 13 7 2 9 11 6 19 -3 9 -6
10 -6 2z m-201 -134 c0 -16 -4 -28 -8 -25 -4 2 -7 -27 -7 -66 0 -41 -3 -71
-10 -73 -52 -14 -272 -65 -278 -65 -5 0 -6 4 -2 10 3 5 13 6 22 3 11 -4 14 -2
11 8 -6 16 19 38 45 39 9 0 17 5 17 11 0 5 4 8 9 5 11 -7 43 29 34 38 -5 4 -3
7 2 6 26 -6 38 3 15 11 -23 8 -23 8 5 5 17 -3 37 -7 46 -11 13 -5 20 2 29 30
9 26 16 35 27 31 12 -5 14 -1 10 14 -3 11 -2 18 3 15 4 -3 11 6 14 20 9 34 16
31 16 -6z m-60 -330 c0 -6 -4 -7 -10 -4 -5 3 -10 11 -10 16 0 6 5 7 10 4 6 -3
10 -11 10 -16z"/>
<path d="M865 4030 c-16 -7 -17 -9 -3 -9 9 -1 20 4 23 9 7 11 7 11 -20 0z"/>
<path d="M668 3953 c6 -2 18 -2 25 0 6 3 1 5 -13 5 -14 0 -19 -2 -12 -5z"/>
<path d="M2169 4218 c-1 -7 -1 -20 0 -30 1 -9 -2 -19 -8 -22 -5 -4 -7 3 -4 16
6 23 6 23 -14 3 -14 -14 -17 -22 -9 -28 7 -4 3 -9 -11 -13 -18 -5 -21 -10 -13
-24 7 -13 5 -22 -9 -34 -10 -9 -21 -13 -25 -9 -4 4 -9 -3 -13 -15 -3 -12 -9
-22 -14 -22 -19 0 -156 31 -174 39 -26 12 -165 45 -169 40 -7 -9 -88 -401 -83
-405 6 -7 264 119 377 185 169 98 232 123 210 84 -9 -17 -70 -223 -70 -237 0
-4 20 7 45 24 48 33 52 39 33 58 -13 13 -8 15 16 6 9 -3 13 -11 9 -17 -3 -6
-1 -7 5 -3 9 5 9 13 2 26 -13 24 -13 43 0 35 6 -3 13 1 16 9 3 9 10 13 15 10
5 -3 9 5 10 18 l0 23 12 -23 c8 -18 8 -25 -3 -32 -8 -5 -18 -6 -24 -3 -5 3 -6
1 -2 -6 4 -6 4 -11 -1 -10 -20 3 -25 -2 -13 -16 14 -16 34 -10 24 7 -5 7 -1 9
8 5 23 -8 52 25 36 41 -7 7 -8 12 -2 12 6 0 14 -4 20 -9 5 -6 18 -2 33 10 13
10 18 19 12 19 -7 0 -9 5 -6 10 9 14 -1 13 -35 -5 -27 -14 -29 -14 -35 6 -4
11 -2 26 4 33 7 8 24 54 40 104 27 86 27 91 10 95 -12 3 -16 1 -13 -5 4 -6 1
-9 -5 -7 -7 3 -13 9 -13 14 0 9 -136 55 -160 55 -4 0 -9 -6 -9 -12z m206 -298
c-3 -5 -10 -10 -16 -10 -5 0 -9 5 -9 10 0 6 7 10 16 10 8 0 12 -4 9 -10z m-45
-34 c0 -2 -8 -10 -17 -17 -16 -13 -17 -12 -4 4 13 16 21 21 21 13z m-131 -97
c-13 -10 -28 -19 -34 -18 -5 0 -1 6 9 14 11 8 24 15 29 15 4 0 5 5 1 12 -5 7
-3 8 6 3 10 -6 7 -12 -11 -26z"/>
<path d="M360 4206 c-132 -15 -204 -50 -220 -106 -72 -265 -113 -516 -87 -532
6 -4 17 -2 23 3 16 13 16 12 49 -108 15 -57 32 -103 37 -103 5 0 7 -13 3 -30
-4 -16 -3 -30 2 -30 7 0 57 34 179 122 20 15 29 28 26 40 -3 12 1 18 11 18 9
0 22 10 28 23 7 12 18 26 25 30 23 13 16 35 -16 53 -27 17 -28 19 -14 35 14
16 10 22 -60 74 -42 32 -76 61 -76 65 0 5 25 18 55 31 66 27 67 35 1 13 -26
-9 -49 -14 -52 -12 -2 3 3 27 11 54 9 27 20 63 25 79 5 17 8 40 6 52 -3 16 -1
20 10 16 8 -3 14 1 14 7 0 14 118 173 132 178 10 4 11 43 1 41 -5 -1 -55 -7
-113 -13z m-130 -147 c70 -53 87 -73 69 -85 -13 -8 -50 26 -42 39 4 6 1 7 -6
3 -9 -6 -9 -12 3 -25 18 -20 21 -35 6 -26 -5 3 -10 -1 -10 -10 0 -9 -4 -14 -9
-11 -5 4 -11 2 -13 -4 -1 -5 -20 31 -40 80 -20 50 -35 90 -32 90 3 0 36 -23
74 -51z"/>
<path d="M2323 3954 c0 -16 6 -17 25 -5 11 6 9 9 -5 13 -12 3 -20 0 -20 -8z"/>
<path d="M1199 3773 c-12 -16 -12 -17 1 -7 8 7 24 14 35 17 19 4 19 5 -1 6
-12 0 -28 -7 -35 -16z"/>
<path d="M10140 3768 c0 -6 -3 -9 -6 -5 -12 12 -33 -17 -22 -30 19 -23 38 -15
38 17 0 17 -2 30 -5 30 -3 0 -5 -5 -5 -12z"/>
<path d="M9243 3638 c-18 -21 -65 -149 -60 -162 3 -7 -1 -20 -9 -30 -11 -16
-11 -21 2 -33 7 -8 14 -27 14 -43 0 -69 14 -58 46 37 33 96 39 152 25 217 -5
25 -8 27 -18 14z"/>
<path d="M1334 3619 c-9 -15 23 -39 53 -39 22 0 33 23 16 33 -23 13 -63 16
-69 6z"/>
<path d="M9614 3538 c-4 -13 -18 -32 -31 -44 l-25 -21 29 -11 c75 -29 73 -30
56 35 -18 69 -19 71 -29 41z"/>
<path d="M1405 3517 c-6 -13 19 -77 29 -77 5 0 -11 80 -17 87 -4 3 -9 -1 -12
-10z"/>
<path d="M9149 3453 c-13 -16 -12 -17 4 -4 9 7 17 15 17 17 0 8 -8 3 -21 -13z"/>
<path d="M10196 3427 c-5 -10 -4 -86 2 -170 11 -163 7 -187 -33 -187 -13 0
-31 -7 -39 -16 -9 -8 -20 -12 -26 -9 -5 3 -10 3 -10 0 0 -11 68 -107 105 -150
l35 -40 -6 110 c-3 61 -9 193 -13 295 -4 110 -10 178 -15 167z"/>
<path d="M1356 3317 c-55 -76 -57 -81 -40 -95 11 -7 18 -18 17 -23 -2 -5 6 -9
16 -9 11 0 23 -5 27 -12 4 -7 3 -8 -5 -4 -15 10 -51 -2 -51 -17 0 -7 9 -53 21
-104 17 -72 24 -90 36 -86 10 4 11 8 3 13 -14 9 -6 124 21 278 11 63 19 119
17 127 -2 7 -29 -24 -62 -68z"/>
<path d="M2130 3351 c-19 -28 -39 -50 -45 -51 -5 0 -1 -6 10 -14 29 -19 155
-59 163 -51 8 7 -39 99 -71 138 l-22 27 -35 -49z"/>
<path d="M2720 3335 c-14 -8 -20 -14 -15 -14 6 0 21 6 35 14 14 8 21 14 15 14
-5 0 -21 -6 -35 -14z"/>
<path d="M3309 3296 c-23 -20 -25 -25 -13 -41 13 -17 14 -17 14 -2 0 10 7 29
16 42 20 31 16 31 -17 1z"/>
<path d="M1585 3252 c-61 -26 -120 -56 -131 -68 l-21 -21 43 -24 c47 -25 53
-34 28 -43 -8 -3 -12 -10 -9 -16 3 -5 0 -7 -8 -4 -8 3 -23 -6 -34 -20 -11 -14
-23 -22 -27 -19 -3 3 -6 -1 -6 -10 0 -15 -11 -22 -32 -18 -5 0 -8 -3 -8 -9 0
-22 39 -7 111 45 62 43 88 71 136 142 64 95 76 113 71 112 -2 0 -53 -22 -113
-47z"/>
<path d="M3470 3290 c0 -5 5 -10 11 -10 5 0 7 5 4 10 -3 6 -8 10 -11 10 -2 0
-4 -4 -4 -10z"/>
<path d="M682 3278 c3 -7 15 -14 29 -16 24 -4 24 -3 4 12 -24 19 -38 20 -33 4z"/>
<path d="M77 3232 l-78 -47 8 -1260 c4 -693 8 -1396 8 -1563 l0 -302 132 0
c72 0 134 4 137 8 3 5 -12 65 -33 134 -21 68 -46 159 -56 202 -9 44 -50 171
-90 285 l-73 206 -7 670 c-3 369 -8 877 -11 1130 -2 253 -2 456 0 450 3 -5 26
-136 52 -290 25 -154 47 -281 49 -283 1 -1 19 23 39 54 29 43 42 55 57 51 10
-3 17 -1 13 4 -3 5 1 9 8 9 7 0 39 31 71 69 51 62 56 72 47 95 -7 20 -6 26 4
26 7 0 23 11 36 25 13 14 32 25 42 25 10 0 18 5 18 10 0 6 11 10 25 10 17 0
28 7 34 23 8 21 5 23 -48 32 l-56 10 -3 40 c-3 38 -10 45 -117 130 -63 49
-118 91 -122 92 -4 2 -43 -18 -86 -45z"/>
<path d="M2270 3163 c-8 -27 -14 -54 -14 -60 1 -7 -2 -13 -7 -13 -5 0 -9 -4
-9 -9 0 -5 11 -4 24 2 13 7 22 15 20 19 -3 4 1 5 9 2 20 -7 27 29 14 71 -6 19
-13 35 -16 35 -4 0 -13 -21 -21 -47z"/>
<path d="M2462 3134 c-23 -19 -41 -41 -39 -47 1 -7 -4 -11 -11 -9 -7 1 -15 -5
-18 -13 -5 -12 -10 -13 -20 -4 -12 9 -11 4 1 -30 23 -66 26 -67 62 -10 48 75
85 149 75 149 -5 0 -27 -16 -50 -36z"/>
<path d="M763 2924 c-5 -10 -25 -56 -43 -101 -17 -46 -36 -81 -40 -78 -9 6
-75 -183 -67 -192 4 -3 103 57 136 83 2 2 -6 18 -18 37 -12 19 -18 42 -15 51
3 9 1 16 -5 16 -8 0 -7 6 1 20 7 11 19 18 25 15 7 -2 13 2 13 10 0 17 40 46
52 39 11 -7 2 44 -16 86 -12 30 -14 31 -23 14z"/>
<path d="M9611 2679 c-28 -182 -28 -183 34 -127 17 15 46 41 65 57 l35 30 -61
61 -60 61 -13 -82z m99 -63 c-7 -7 -13 -7 -20 0 -6 6 -3 10 10 10 13 0 16 -4
10 -10z"/>
<path d="M600 2723 c-19 -8 -46 -17 -60 -20 -35 -6 -35 -9 -6 -43 23 -28 27
-30 33 -13 4 10 13 24 20 31 11 11 13 11 13 0 0 -10 3 -10 9 2 6 8 7 18 5 22
-3 4 5 8 18 8 17 0 19 3 9 9 -11 7 -10 10 5 14 11 3 12 5 4 5 -8 0 -31 -7 -50
-15z"/>
<path d="M9746 2622 c-3 -5 1 -9 9 -9 8 0 12 4 9 9 -3 4 -7 8 -9 8 -2 0 -6 -4
-9 -8z"/>
<path d="M380 2572 c0 -5 5 -34 11 -66 8 -39 16 -55 25 -52 7 3 15 0 18 -7 3
-7 3 2 -1 18 -3 17 -13 46 -21 65 -8 19 -14 38 -14 43 1 4 -2 7 -8 7 -5 0 -10
-4 -10 -8z"/>
<path d="M116 2551 c-5 -8 17 -101 28 -119 8 -13 42 -4 57 14 10 12 6 22 -22
51 -19 20 -29 34 -24 31 6 -3 18 2 27 11 16 16 15 17 -22 18 -22 1 -42 -2 -44
-6z"/>
<path d="M1447 2433 c-4 -3 -7 -13 -7 -20 0 -12 3 -12 15 1 8 8 15 17 15 20 0
8 -15 7 -23 -1z"/>
<path d="M4185 2248 c-27 -5 -51 -11 -53 -13 -2 -2 4 -15 13 -29 16 -25 18
-25 43 -9 40 25 77 63 61 62 -8 -1 -36 -6 -64 -11z"/>
<path d="M36 2214 c-7 -18 -8 -170 -2 -163 5 4 15 179 10 179 -1 0 -5 -7 -8
-16z"/>
<path d="M4970 2019 c0 -5 5 -7 10 -4 6 3 10 8 10 11 0 2 -4 4 -10 4 -5 0 -10
-5 -10 -11z"/>
<path d="M4895 1960 c-10 -11 -13 -20 -8 -20 6 0 14 7 17 16 3 8 11 12 17 8 8
-4 9 -3 5 4 -9 16 -10 15 -31 -8z"/>
<path d="M3561 1914 c0 -11 3 -14 6 -6 3 7 2 16 -1 19 -3 4 -6 -2 -5 -13z"/>
<path d="M4770 1833 c0 -16 29 -144 37 -163 3 -8 6 -18 5 -22 -1 -4 5 -5 13
-2 8 4 15 10 15 15 0 6 9 19 20 31 11 12 20 24 20 28 0 3 -25 32 -55 65 -30
33 -55 55 -55 48z"/>
<path d="M2951 1379 c-7 -22 -15 -29 -26 -25 -20 7 -19 -3 4 -37 l18 -29 8 29
c8 31 15 93 10 93 -2 0 -8 -14 -14 -31z"/>
<path d="M392 1297 c-7 -8 -7 -17 2 -30 19 -25 26 -21 26 13 0 32 -11 38 -28
17z"/>
<path d="M2964 1233 c3 -10 12 -54 21 -98 9 -44 21 -98 26 -119 l11 -39 58 58
c33 32 56 63 53 68 -4 6 -1 7 7 2 7 -4 16 -2 20 5 9 15 -6 28 -95 82 -101 60
-108 63 -101 41z"/>
<path d="M2979 943 c0 -10 -3 -13 -5 -6 -6 14 -114 -55 -113 -72 0 -5 3 -4 6
3 2 6 9 12 14 12 6 0 7 -5 3 -11 -4 -8 0 -8 15 0 12 7 27 9 34 6 6 -4 5 0 -4
7 -15 12 -13 15 17 24 22 7 34 8 34 1 0 -6 -19 -74 -42 -151 -23 -78 -42 -154
-42 -171 -1 -28 2 -30 62 -43 51 -11 61 -16 52 -28 -7 -7 -9 -18 -5 -24 3 -5
0 -10 -9 -10 -16 0 -16 -24 1 -41 9 -9 23 -7 54 5 50 20 59 16 24 -12 -15 -12
-25 -29 -23 -39 3 -18 195 -194 261 -240 24 -17 41 -23 45 -16 4 5 24 16 45
23 21 6 36 14 34 16 -2 3 -17 0 -32 -6 -15 -6 -29 -9 -31 -7 -2 1 6 45 16 96
11 52 20 103 20 114 0 21 0 21 -15 1 -8 -10 -15 -15 -15 -11 0 4 -24 -10 -54
-32 l-53 -39 -56 116 c-31 64 -60 133 -66 152 -5 19 -20 67 -34 105 -32 92
-40 125 -28 125 5 0 12 -10 14 -22 l4 -23 2 23 c0 12 9 26 19 29 9 4 20 11 24
17 5 7 8 4 8 -6 0 -10 6 -18 14 -18 9 0 15 21 20 71 4 39 5 73 2 76 -6 6 -131
22 -178 23 -29 0 -38 -4 -39 -17z"/>
<path d="M4449 917 c-2 -6 -11 -45 -14 -62 -5 -30 -44 -122 -44 -105 -1 12 -3
12 -16 -1 -12 -11 -13 -22 -4 -52 10 -39 18 -43 47 -28 9 6 53 28 97 50 44 21
107 53 140 70 l59 30 -29 11 c-131 51 -165 64 -197 75 -21 8 -38 13 -39 12z"/>
<path d="M189 803 c-1 -5 -1 -12 0 -17 1 -5 -5 -6 -14 -3 -10 4 -15 1 -15 -11
0 -13 -2 -14 -9 -3 -5 8 -11 9 -15 3 -3 -6 -2 -13 4 -17 5 -3 10 -13 10 -22 0
-9 11 -36 26 -60 l25 -43 65 64 c36 36 63 69 60 74 -6 11 -97 42 -120 42 -9 0
-17 -3 -17 -7z"/>
<path d="M2843 529 c-5 -5 -24 -18 -41 -27 -91 -50 -131 -76 -127 -82 2 -4
-14 -22 -36 -40 -22 -17 -44 -41 -48 -52 l-8 -21 -19 20 c-10 11 -81 52 -156
90 -102 51 -138 65 -138 54 1 -41 69 -334 79 -340 6 -4 49 -8 94 -10 45 -1 90
-4 100 -7 19 -6 24 12 5 19 -8 3 -9 6 -2 6 7 1 10 14 8 32 -2 18 0 28 6 24 6
-3 10 -1 10 4 0 6 9 11 20 11 11 0 20 5 20 10 0 6 6 10 14 10 8 0 31 24 52 53
21 28 62 85 91 125 30 39 51 77 48 82 -4 6 -1 9 5 8 6 -2 19 7 27 20 16 23 14
29 -4 11z"/>
<path d="M648 451 c1 -2 -5 -12 -14 -22 -15 -17 -15 -18 9 -25 41 -10 49 -1
24 26 -12 14 -21 24 -19 21z"/>
<path d="M290 431 c0 -6 0 -14 1 -17 0 -4 -5 -11 -13 -16 -20 -15 51 -3 92 15
l35 15 -42 1 c-23 1 -48 4 -57 7 -9 3 -16 1 -16 -5z"/>
<path d="M710 318 c0 -10 -8 -18 -17 -18 -15 0 -15 -2 -4 -9 11 -7 11 -10 -3
-12 -14 -3 -12 -10 15 -36 17 -18 35 -33 41 -33 12 0 21 28 14 43 -36 67 -45
80 -46 65z"/>
<path d="M3557 261 c3 -10 0 -22 -6 -25 -7 -5 -8 -1 -4 10 5 13 0 12 -25 -6
-18 -13 -32 -28 -32 -33 0 -4 -9 -6 -19 -2 -21 6 -38 -10 -22 -20 12 -7 151
46 151 58 0 4 -4 6 -9 3 -5 -3 -12 1 -15 10 -4 10 -2 13 6 8 7 -4 8 -3 4 4
-12 20 -35 14 -29 -7z"/>
<path d="M2630 201 c0 -5 5 -13 10 -16 6 -3 10 -2 10 4 0 5 -4 13 -10 16 -5 3
-10 2 -10 -4z"/>
<path d="M3000 196 c0 -2 26 -20 58 -42 35 -23 67 -37 82 -36 20 2 22 1 10 -7
-9 -7 -10 -11 -3 -11 6 0 15 5 18 10 3 6 11 10 16 10 6 0 7 -5 3 -12 -4 -7 -3
-8 4 -4 9 5 9 12 0 25 -9 15 -15 17 -30 8 -13 -9 -21 -8 -30 1 -9 9 -9 12 0
12 7 0 12 5 12 10 0 6 -6 10 -12 9 -7 -1 -21 1 -30 4 -10 4 -26 10 -35 14 -20
7 -63 13 -63 9z m114 -62 c5 -14 4 -15 -9 -4 -17 14 -19 20 -6 20 5 0 12 -7
15 -16z"/>
<path d="M2195 169 c6 -9 3 -10 -11 -5 -17 6 -17 5 -4 -8 12 -12 110 -30 110
-20 0 5 -52 31 -79 39 -18 5 -22 4 -16 -6z"/>
<path d="M1903 145 c-16 -14 -37 -32 -48 -40 -19 -15 -18 -15 10 -9 61 14 75
23 75 49 0 31 -3 31 -37 0z"/>
<path d="M2590 140 c0 -5 5 -10 10 -10 6 0 10 5 10 10 0 6 -4 10 -10 10 -5 0
-10 -4 -10 -10z"/>
<path d="M2630 120 c13 -8 12 -10 -4 -10 -11 0 -17 -2 -14 -5 3 -4 18 -3 34 1
25 6 26 8 9 15 -28 11 -43 10 -25 -1z"/>
<path d="M785 93 c-66 -16 -26 -50 67 -57 98 -8 500 -26 563 -25 30 1 -57 18
-220 44 -248 40 -358 50 -410 38z"/>
<path d="M3238 42 c-10 -2 -18 -8 -18 -13 0 -11 11 -11 30 1 18 11 11 18 -12
12z"/>
<path d="M3298 33 c12 -2 30 -2 40 0 9 3 -1 5 -23 4 -22 0 -30 -2 -17 -4z"/>
<path d="M1538 13 c12 -2 32 -2 45 0 12 2 2 4 -23 4 -25 0 -35 -2 -22 -4z"/>
<path d="M1618 13 c6 -2 18 -2 25 0 6 3 1 5 -13 5 -14 0 -19 -2 -12 -5z"/>
<path d="M1723 13 c15 -2 39 -2 55 0 15 2 2 4 -28 4 -30 0 -43 -2 -27 -4z"/>
<path d="M1863 13 c26 -2 68 -2 95 0 26 2 4 3 -48 3 -52 0 -74 -1 -47 -3z"/>
<path d="M2107 13 c18 -2 50 -2 70 0 21 2 7 4 -32 4 -38 0 -55 -2 -38 -4z"/>
<path d="M2248 13 c18 -2 45 -2 60 0 15 2 0 4 -33 4 -33 0 -45 -2 -27 -4z"/>
</g>
</svg>
